
<svg version="1.0" xmlns="http://www.w3.org/2000/svg"
 width="799.000000pt" height="780.000000pt" viewBox="0 0 799.000000 780.000000"
 preserveAspectRatio="xMidYMid meet">

<g transform="translate(0.000000,780.000000) scale(0.100000,-0.100000)"
fill="#000000" stroke="none">
<path d="M0 3900 l0 -3900 3995 0 3995 0 0 3900 0 3900 -3995 0 -3995 0 0
-3900z m4089 3732 c58 -57 50 -203 -13 -254 -42 -35 -146 -8 -146 38 0 20 27
17 50 -6 11 -11 29 -20 39 -20 23 0 61 45 61 72 0 15 -3 17 -19 8 -78 -41
-160 37 -131 125 15 44 44 65 93 65 29 0 46 -7 66 -28z m216 -663 c144 -13
350 -49 500 -89 1158 -307 2045 -1280 2236 -2454 11 -72 25 -139 30 -149 5
-10 7 -22 5 -26 -3 -5 -1 -84 5 -176 30 -475 -69 -993 -275 -1443 -74 -161
-132 -263 -241 -427 -276 -416 -648 -753 -1100 -999 -77 -41 -148 -81 -158
-88 -10 -7 -23 -12 -27 -11 -5 2 -44 -13 -88 -31 -189 -81 -466 -159 -695
-196 -1275 -205 -2550 421 -3176 1557 -190 345 -317 753 -362 1163 -17 158
-15 645 4 677 2 4 8 35 12 68 11 94 62 330 96 440 111 364 292 718 518 1010
543 702 1388 1143 2269 1184 167 7 274 5 447 -10z m-2716 -624 c47 -24 56 -83
18 -117 -23 -21 -23 -21 -5 -58 16 -32 17 -42 6 -76 -17 -51 -66 -84 -125 -84
-94 0 -139 105 -74 171 28 28 29 30 15 58 -40 80 74 153 165 106z m5011 -145
c0 -143 -1 -150 -20 -150 -19 0 -20 7 -20 110 0 61 -3 110 -7 110 -5 0 -17 -7
-27 -15 -26 -20 -36 -19 -36 4 0 10 18 30 40 46 22 15 40 32 40 36 0 5 7 9 15
9 13 0 15 -23 15 -150z m-5830 -1779 c0 -10 -18 -41 -40 -69 -43 -53 -106
-180 -116 -232 -6 -27 -10 -30 -45 -30 -22 0 -39 2 -39 3 0 2 8 28 19 58 23
68 66 154 99 197 l24 32 -74 0 -75 0 5 30 4 30 119 0 c110 0 119 -1 119 -19z
m6734 -22 c20 -16 26 -29 26 -61 0 -37 -6 -48 -65 -106 -36 -36 -65 -67 -65
-69 0 -1 29 -3 65 -3 58 0 65 -2 65 -20 0 -19 -7 -20 -100 -20 -127 0 -128 7
-20 112 85 83 97 110 60 143 -25 23 -67 13 -82 -20 -14 -31 -48 -34 -48 -5 0
12 11 32 25 45 32 33 100 35 139 4z m-6477 -2094 c11 -8 23 -24 26 -35 4 -16
0 -20 -19 -20 -13 0 -24 4 -24 10 0 15 -39 32 -61 25 -11 -4 -27 -22 -36 -41
-17 -35 -12 -57 9 -36 15 15 78 15 99 -1 48 -37 53 -115 10 -158 -40 -39 -89
-40 -133 0 -28 25 -32 35 -36 94 -5 77 10 129 45 157 30 24 89 26 120 5z
m6117 -6 c29 -23 35 -63 13 -93 -12 -16 -10 -22 10 -42 79 -79 -68 -196 -151
-119 -31 29 -35 65 -7 65 11 0 23 -9 26 -21 11 -33 49 -45 80 -25 47 31 18
117 -35 103 -34 -9 -24 26 13 43 39 18 48 53 17 70 -26 14 -57 5 -70 -21 -13
-23 -50 -26 -50 -4 0 9 11 27 25 40 31 32 91 34 129 4z m-1834 -1644 c0 -88 1
-95 20 -95 13 0 20 -7 20 -20 0 -13 -7 -20 -20 -20 -16 0 -20 -7 -20 -35 0
-28 -4 -35 -20 -35 -16 0 -20 7 -20 35 l0 35 -65 0 c-61 0 -65 1 -65 23 0 32
128 207 152 207 16 0 18 -10 18 -95z m-2160 5 l0 -40 -75 0 c-53 0 -75 -4 -75
-12 0 -7 -3 -22 -6 -33 -4 -18 0 -20 51 -20 51 0 59 -3 85 -32 80 -90 20 -223
-101 -223 -57 0 -106 30 -125 77 -13 29 -13 37 -2 44 22 14 78 11 78 -4 0 -8
9 -22 20 -32 26 -24 68 -13 76 20 16 66 -27 101 -87 71 -35 -18 -57 -20 -76
-8 -10 6 -10 27 2 97 26 151 10 135 130 135 l105 0 0 -40z m30 -415 l0 -25
-155 0 -155 0 0 25 0 25 155 0 155 0 0 -25z"/>
<path d="M3990 7610 c-28 -28 -27 -84 2 -104 30 -21 44 -20 68 4 37 37 13 120
-35 120 -8 0 -24 -9 -35 -20z"/>
<path d="M3875 6963 c-1394 -67 -2561 -1063 -2849 -2429 -29 -141 -42 -244
-30 -244 5 0 257 85 559 189 467 161 550 192 548 208 -1 10 -65 310 -142 667
-77 357 -138 652 -136 656 3 4 37 11 76 14 39 4 78 10 88 13 10 4 5 -6 -12
-24 l-29 -31 593 -197 c326 -109 598 -198 605 -199 12 -1 844 1354 844 1374 0
6 -12 9 -27 8 -16 -1 -55 -3 -88 -5z"/>
<path d="M4040 6965 c0 -3 28 -23 61 -44 l61 -39 -31 -7 c-17 -4 -31 -9 -31
-12 0 -16 753 -1243 763 -1243 6 0 282 93 614 207 l602 208 -27 28 -27 29 55
-7 c30 -3 64 -9 75 -12 28 -8 -14 36 -135 141 -422 367 -932 610 -1480 705
-166 29 -500 59 -500 46z"/>
<path d="M3992 6919 c-8 -12 -15 -29 -17 -38 -1 -9 -173 -293 -381 -631 -207
-338 -386 -629 -396 -647 l-19 -31 395 -132 395 -131 428 147 c235 81 430 148
432 150 5 4 -750 1244 -758 1244 -4 0 -14 -12 -22 -27 l-14 -26 -6 29 c-4 16
-7 48 -8 72 -1 47 -10 53 -29 21z"/>
<path d="M6188 6044 c-8 -12 -248 -1343 -248 -1372 0 -18 59 -40 543 -201 298
-100 546 -181 551 -181 12 0 -1 103 -30 244 -101 477 -309 918 -610 1291 -104
129 -199 231 -206 219z"/>
<path d="M6117 5982 l-37 -37 0 33 c0 17 -4 32 -8 32 -12 0 -1191 -406 -1198
-412 -3 -3 95 -170 217 -371 l222 -366 300 -100 c166 -56 301 -100 302 -98 5
5 245 1351 242 1353 -2 2 -20 -13 -40 -34z"/>
<path d="M1842 5980 c3 -8 68 -304 144 -657 76 -354 143 -643 149 -642 5 0
142 46 304 102 l293 102 204 335 c112 184 204 337 204 340 0 3 -262 92 -582
199 -321 107 -589 196 -595 199 -9 3 -13 -8 -13 -34 l0 -38 -56 54 c-31 30
-55 48 -52 40z"/>
<path d="M4423 5447 c-227 -78 -413 -144 -413 -147 0 -3 286 -100 635 -217
l635 -211 -22 37 c-223 370 -414 681 -418 680 -3 0 -191 -64 -417 -142z"/>
<path d="M2968 5228 c-109 -177 -196 -324 -194 -325 2 -2 262 85 579 194 317
109 573 201 569 204 -9 8 -733 249 -747 249 -6 0 -99 -145 -207 -322z"/>
<path d="M3359 5081 c-328 -113 -603 -212 -611 -218 -22 -19 -71 -121 -65
-137 3 -8 -1 -13 -11 -12 -11 1 -79 -101 -215 -324 l-200 -325 158 -730 c86
-401 161 -749 167 -772 l10 -42 1468 -1 1469 0 10 53 c6 28 67 365 136 747
l125 695 -152 250 c-83 138 -179 296 -212 352 -34 57 -65 101 -71 99 -5 -2
-11 7 -11 19 -1 13 -16 43 -33 68 l-31 45 -662 221 c-365 122 -665 220 -668
220 -3 -1 -273 -94 -601 -208z"/>
<path d="M2425 4759 c-154 -54 -284 -99 -288 -101 -6 -2 67 -365 108 -537 5
-19 41 35 200 295 107 175 195 324 195 331 0 7 3 13 8 13 8 0 66 89 61 94 -2
1 -130 -41 -284 -95z"/>
<path d="M5340 4825 c0 -15 42 -75 49 -71 4 3 7 -3 7 -12 0 -10 84 -157 188
-327 224 -370 217 -358 221 -353 10 10 105 572 98 578 -4 4 -127 47 -273 95
-146 48 -271 90 -277 93 -7 2 -13 1 -13 -3z"/>
<path d="M1565 4464 c-291 -101 -534 -185 -540 -187 -5 -2 17 -21 49 -43 l60
-39 -37 -3 c-20 -2 -37 -5 -37 -7 0 -8 592 -1000 604 -1013 9 -10 70 82 281
425 147 241 273 450 279 465 8 22 -2 81 -50 304 -33 153 -64 279 -69 280 -6 1
-248 -81 -540 -182z"/>
<path d="M5925 4608 c-3 -13 -28 -148 -55 -302 l-50 -278 277 -459 c153 -252
282 -457 286 -456 4 1 140 243 303 537 l294 535 -37 5 -38 5 54 39 54 40 -534
178 c-294 98 -537 178 -541 178 -4 0 -10 -10 -13 -22z"/>
<path d="M975 4195 c-16 -114 -11 -511 9 -655 34 -251 90 -477 173 -700 38
-103 120 -289 134 -304 16 -18 24 6 34 107 l11 102 18 -34 c15 -28 20 -31 31
-20 20 22 267 429 269 442 1 14 -605 1037 -614 1037 -4 0 -13 -11 -20 -25 -19
-36 -28 -20 -32 55 l-3 65 -10 -70z"/>
<path d="M7051 4160 l-2 -45 -24 30 c-15 18 -28 26 -33 20 -14 -16 -583 -1053
-588 -1072 -5 -20 315 -556 331 -555 4 0 30 47 56 104 128 283 213 579 254
893 20 154 29 442 17 570 -5 59 -10 81 -11 55z"/>
<path d="M1966 3587 c-153 -252 -276 -463 -273 -470 3 -6 84 -142 180 -302
l173 -290 262 -3 c144 -1 262 1 262 4 0 4 -70 329 -155 723 -85 394 -158 734
-162 755 l-9 39 -278 -456z"/>
<path d="M5810 3982 c0 -7 -58 -336 -130 -732 -71 -397 -130 -723 -130 -726 0
-2 116 -3 257 -2 l258 3 153 277 153 276 -272 449 c-150 246 -276 452 -281
458 -5 5 -8 4 -8 -3z"/>
<path d="M1542 2890 c-72 -120 -132 -221 -132 -223 0 -3 15 -7 33 -9 l32 -3
-60 -35 c-33 -20 -67 -50 -78 -68 l-19 -32 352 0 c306 0 351 2 347 15 -7 16
-326 556 -336 567 -3 4 -66 -91 -139 -212z"/>
<path d="M6232 2791 c-78 -142 -142 -261 -142 -265 0 -3 117 -6 261 -6 228 0
260 2 255 15 -3 8 -9 22 -12 31 -5 12 6 9 46 -11 28 -14 54 -25 56 -22 5 5
-303 511 -313 514 -4 2 -72 -113 -151 -256z"/>
<path d="M1350 2423 c232 -427 620 -833 1052 -1102 107 -67 323 -181 417 -219
l53 -22 -34 43 c-47 57 -53 68 -34 61 9 -3 16 -2 16 2 -1 5 -175 302 -389 659
l-388 650 -367 3 -368 2 42 -77z"/>
<path d="M2256 2173 c108 -181 286 -480 397 -666 111 -186 203 -335 205 -329
1 5 -59 292 -133 638 -75 346 -139 641 -142 657 l-5 27 -259 0 -258 0 195
-327z"/>
<path d="M2600 2489 c0 -6 63 -302 140 -659 77 -356 140 -651 140 -656 0 -4
11 3 25 16 14 13 27 21 30 18 3 -3 -2 -35 -11 -72 -9 -37 -15 -68 -13 -71 10
-9 285 -96 379 -119 519 -126 1078 -112 1593 40 126 37 373 130 382 143 2 5
-2 32 -11 60 -19 67 -15 78 19 51 15 -12 27 -16 27 -10 0 6 50 285 110 621 61
336 110 619 110 630 0 17 -7 19 -60 19 -33 0 -60 -3 -60 -7 0 -5 -11 -8 -25
-8 -14 0 -25 3 -25 8 0 4 -295 7 -656 7 -360 0 -653 -3 -651 -7 3 -5 -5 -8
-18 -8 -13 0 -21 3 -18 8 2 4 -296 7 -662 7 -366 0 -664 -3 -662 -7 3 -5 -5
-8 -18 -8 -13 0 -21 3 -18 8 2 4 -7 7 -21 7 -14 0 -26 -5 -26 -11z"/>
<path d="M5547 2493 c-11 -18 -230 -1263 -224 -1270 4 -4 16 2 26 13 21 22
691 1238 691 1253 0 13 -486 16 -493 4z"/>
<path d="M5732 1883 c-187 -340 -342 -625 -344 -633 -2 -8 -14 -30 -27 -48
-12 -18 -21 -35 -19 -37 7 -7 238 123 353 199 351 232 642 523 870 871 78 119
150 245 141 245 -4 0 -29 -12 -57 -26 -56 -28 -66 -27 -49 6 6 12 9 25 5 28
-4 4 -125 8 -270 10 l-263 3 -340 -618z"/>
<path d="M1496 6288 c-16 -22 -6 -58 15 -58 39 0 63 42 37 68 -18 18 -35 15
-52 -10z"/>
<path d="M1476 6164 c-34 -33 -27 -104 9 -104 24 0 55 38 55 68 0 48 -34 67
-64 36z"/>
<path d="M932 2174 c-42 -29 -17 -124 33 -124 25 0 55 38 55 70 0 31 -30 70
-53 70 -7 0 -23 -7 -35 -16z"/>
<path d="M5221 620 l-42 -60 45 0 46 0 0 60 c0 33 -2 60 -4 60 -2 0 -22 -27
-45 -60z"/>
</g>
</svg>
