
<svg version="1.0" xmlns="http://www.w3.org/2000/svg"
 width="2474.000000pt" height="2560.000000pt" viewBox="0 0 2474.000000 2560.000000"
 preserveAspectRatio="xMidYMid meet">

<g transform="translate(0.000000,2560.000000) scale(0.100000,-0.100000)"
fill="#fff" stroke="none">
<path d="M0 12800 l0 -12800 12370 0 12370 0 0 12800 0 12800 -12370 0 -12370
0 0 -12800z m9495 12186 c61 -9 151 -26 200 -37 50 -11 109 -24 132 -29 23 -5
59 -17 80 -26 36 -16 80 -34 168 -67 57 -22 129 -63 150 -87 10 -11 22 -20 27
-20 5 0 25 -11 46 -24 54 -36 89 -42 112 -21 11 10 20 22 20 27 0 4 9 27 19
51 11 23 29 67 39 97 52 146 61 158 108 146 47 -12 54 -52 54 -300 0 -259 2
-269 85 -377 27 -36 61 -85 75 -108 14 -23 35 -58 48 -77 12 -19 22 -41 22
-48 0 -7 11 -30 25 -50 14 -20 25 -42 25 -49 0 -7 9 -26 19 -43 40 -66 116
-412 128 -585 l6 -76 86 -26 c84 -26 134 -38 311 -72 47 -9 119 -27 160 -40
41 -13 119 -29 172 -36 115 -15 246 -2 373 35 97 29 190 51 309 71 184 31 190
36 200 155 28 348 66 511 164 705 75 149 111 204 207 319 l66 80 -5 60 c-21
244 -17 442 10 453 35 13 61 -7 91 -69 43 -89 83 -193 83 -216 0 -34 11 -52
31 -52 25 0 139 60 176 92 24 20 108 64 158 82 22 7 85 31 140 51 55 21 118
41 140 45 22 4 78 17 125 29 172 42 343 56 660 55 162 -1 340 -6 395 -13 55
-6 155 -16 222 -21 67 -6 157 -17 200 -26 43 -9 96 -19 118 -23 104 -19 246
-94 321 -168 55 -55 63 -68 69 -112 14 -101 3 -124 -102 -225 -53 -50 -119
-108 -147 -130 -28 -21 -53 -41 -56 -45 -3 -3 -12 -10 -21 -16 -9 -5 -43 -28
-75 -49 -33 -22 -72 -47 -89 -56 -16 -9 -39 -21 -50 -27 -30 -15 -115 -54
-250 -113 -66 -29 -138 -60 -160 -70 -158 -70 -311 -130 -329 -130 -9 0 -100
-38 -173 -71 -23 -11 -63 -26 -90 -34 -26 -8 -102 -32 -168 -53 -66 -22 -165
-52 -220 -67 -55 -14 -131 -37 -170 -50 -38 -13 -108 -36 -155 -50 -47 -15
-89 -32 -93 -38 -10 -16 0 -90 23 -162 37 -115 70 -240 70 -266 0 -28 34 -139
56 -181 11 -22 30 -32 97 -53 45 -14 123 -30 172 -35 50 -6 140 -17 201 -25
61 -8 164 -20 230 -25 65 -5 191 -16 279 -25 376 -36 1393 -52 2000 -32 138 5
247 6 244 3 -29 -29 -626 -50 -1419 -50 -327 0 -678 5 -780 11 -301 18 -727
53 -847 69 -61 9 -116 13 -122 9 -17 -10 -13 -65 9 -126 10 -31 24 -85 29
-120 6 -35 19 -98 30 -139 11 -41 31 -119 45 -172 14 -54 26 -108 26 -119 0
-24 41 -202 71 -309 10 -36 21 -83 24 -105 4 -22 16 -74 27 -115 12 -41 27
-102 34 -135 14 -65 56 -222 79 -295 7 -25 17 -65 20 -90 4 -25 13 -70 21
-100 8 -30 19 -84 25 -120 5 -36 17 -85 25 -109 8 -24 19 -78 25 -120 6 -42
17 -99 25 -127 8 -28 21 -84 28 -125 27 -143 57 -285 75 -354 11 -38 22 -90
26 -115 3 -25 12 -72 20 -105 8 -33 19 -100 25 -150 6 -49 17 -119 25 -155 8
-36 21 -110 29 -165 8 -55 20 -113 25 -128 17 -43 60 -236 71 -318 6 -41 19
-112 30 -159 20 -88 52 -232 94 -430 13 -63 36 -194 51 -290 15 -96 37 -215
50 -265 13 -49 27 -126 30 -170 4 -44 15 -109 25 -145 10 -36 25 -96 34 -134
24 -103 30 -103 57 6 10 40 25 98 34 128 9 30 23 84 32 120 8 36 23 101 34
145 11 44 25 103 30 130 6 28 18 79 29 115 10 36 30 119 45 185 14 66 32 138
40 160 7 22 29 85 48 140 44 127 80 244 112 365 41 153 116 415 145 500 28 84
68 230 75 275 12 71 88 315 165 525 18 47 35 96 39 110 5 14 24 57 44 96 20
39 66 145 102 235 68 172 84 208 169 379 161 329 194 373 421 552 215 170 233
188 365 362 25 33 60 74 78 91 17 18 32 34 32 37 0 7 64 114 78 131 6 7 31 53
56 102 26 50 50 97 55 105 4 8 14 29 23 45 8 17 19 39 25 50 6 11 18 36 27 55
9 19 20 42 24 50 5 8 26 49 47 90 61 120 66 129 160 269 50 74 95 143 101 153
6 10 20 29 31 41 19 22 49 64 69 98 14 25 138 163 196 220 26 25 75 60 110 77
35 17 72 39 83 49 11 10 43 32 70 48 28 16 57 34 66 40 128 79 145 87 334 170
57 25 210 72 270 83 157 29 372 44 540 38 656 -23 766 -20 930 25 39 10 104
23 145 29 76 9 173 37 245 70 173 79 386 189 416 216 8 8 19 14 24 14 5 0 46
39 92 88 126 133 110 114 188 228 52 78 68 105 109 189 54 110 86 184 86 201
0 8 11 36 24 62 13 26 26 59 30 74 7 33 55 91 56 68 1 -59 -57 -256 -101 -341
-10 -21 -19 -43 -19 -48 0 -18 -109 -230 -133 -260 -6 -7 -16 -21 -22 -31 -5
-9 -19 -30 -29 -46 -24 -37 -63 -99 -90 -144 -12 -19 -26 -42 -31 -51 -6 -9
-26 -41 -46 -71 -20 -30 -52 -86 -71 -124 -36 -74 -42 -83 -125 -194 -29 -39
-53 -74 -53 -80 0 -5 -4 -10 -9 -10 -4 0 -23 -23 -42 -52 -162 -248 -313 -439
-386 -489 -26 -18 -52 -39 -56 -46 -4 -7 -14 -13 -21 -13 -8 0 -20 -7 -27 -16
-7 -9 -36 -30 -64 -48 -28 -17 -60 -37 -71 -43 -70 -44 -195 -91 -319 -118
-66 -14 -154 -37 -195 -51 -41 -13 -82 -24 -90 -24 -8 0 -51 -11 -95 -24 -44
-14 -123 -37 -175 -52 -52 -14 -113 -33 -135 -41 -22 -8 -58 -22 -80 -30 -52
-19 -468 -226 -520 -258 -22 -14 -51 -31 -65 -37 -14 -7 -39 -23 -56 -35 -17
-13 -35 -23 -39 -23 -4 0 -23 -11 -41 -25 -18 -14 -36 -25 -39 -25 -4 0 -39
-25 -78 -55 -40 -30 -83 -62 -96 -72 -13 -10 -37 -30 -55 -44 -94 -77 -209
-156 -261 -178 -26 -11 -136 -131 -181 -196 -127 -185 -154 -226 -154 -234 0
-5 -43 -54 -96 -110 -132 -138 -199 -233 -291 -416 -22 -44 -50 -96 -61 -115
-12 -19 -41 -73 -65 -120 -60 -115 -103 -187 -140 -233 -48 -62 -70 -97 -106
-172 -95 -201 -98 -206 -158 -295 -16 -25 -32 -49 -34 -55 -2 -5 -26 -44 -53
-85 -53 -82 -86 -134 -102 -165 -6 -11 -23 -42 -39 -70 -16 -27 -46 -84 -68
-125 -21 -41 -53 -91 -71 -110 -47 -50 -124 -152 -186 -245 -29 -44 -70 -105
-90 -135 -20 -30 -40 -63 -43 -73 -6 -15 -67 -123 -102 -178 -5 -9 -22 -39
-37 -66 -14 -27 -34 -55 -42 -62 -9 -8 -16 -19 -16 -26 0 -6 -9 -20 -20 -30
-11 -10 -22 -26 -26 -37 -3 -11 -27 -54 -52 -96 -26 -42 -58 -102 -71 -132
-13 -30 -34 -77 -46 -105 -54 -124 -73 -172 -79 -205 -3 -19 -32 -84 -63 -145
-90 -175 -120 -237 -138 -290 -9 -27 -29 -77 -44 -110 -15 -33 -36 -78 -45
-100 -9 -22 -22 -49 -28 -60 -38 -68 -82 -171 -112 -270 -16 -49 -37 -109 -47
-133 -11 -23 -23 -59 -28 -80 -5 -20 -12 -45 -16 -54 -18 -43 75 -40 136 5 42
30 119 148 200 304 95 183 151 288 181 343 13 25 46 86 73 135 26 50 65 119
86 154 22 34 39 66 39 69 0 3 10 19 23 36 27 36 142 220 179 286 89 159 288
472 393 620 25 36 54 76 63 90 9 14 21 30 25 35 18 22 119 165 173 245 32 47
67 97 78 111 24 31 55 73 76 104 116 173 148 224 154 243 4 13 39 62 77 110
38 48 91 114 117 147 45 57 74 91 125 145 13 14 60 68 104 120 116 136 248
262 517 493 52 44 129 97 173 118 56 27 107 58 183 114 30 22 63 45 72 50 9 6
43 28 75 50 134 92 469 242 623 280 118 30 286 65 305 65 73 0 401 131 466
186 8 8 19 14 23 14 4 0 19 8 34 19 15 10 54 36 87 57 33 21 62 41 65 44 3 3
28 23 55 45 74 58 273 263 389 400 92 108 206 257 206 269 0 9 66 111 83 128
9 10 17 23 17 30 0 6 11 26 25 44 14 18 25 35 25 38 0 4 31 61 68 129 38 67
110 205 161 307 51 102 99 196 106 210 25 45 46 94 70 160 50 139 57 156 76
196 10 22 19 45 19 52 0 18 22 62 32 62 13 0 9 -40 -8 -95 -9 -27 -24 -79 -34
-115 -22 -77 -54 -168 -81 -227 -10 -23 -19 -46 -19 -52 0 -9 -91 -198 -111
-231 -5 -8 -14 -27 -20 -41 -5 -14 -19 -41 -29 -60 -10 -19 -49 -92 -85 -164
-37 -71 -82 -155 -101 -185 -18 -30 -39 -66 -46 -80 -16 -31 -70 -122 -80
-135 -5 -5 -27 -39 -50 -75 -23 -36 -45 -67 -48 -70 -3 -3 -26 -33 -51 -67
-38 -52 -151 -180 -254 -288 -16 -17 -44 -47 -61 -66 -96 -106 -227 -208 -434
-337 -34 -21 -158 -83 -233 -116 -61 -28 -198 -66 -257 -72 -30 -4 -91 -17
-136 -30 -44 -13 -89 -24 -100 -24 -18 0 -213 -61 -299 -94 -22 -8 -67 -29
-100 -46 -33 -18 -73 -39 -90 -47 -16 -9 -37 -20 -45 -24 -8 -5 -36 -20 -61
-33 -25 -14 -51 -32 -58 -40 -8 -9 -17 -16 -21 -16 -7 0 -43 -23 -164 -108
-66 -46 -119 -79 -180 -111 -115 -63 -209 -143 -453 -390 -174 -174 -404 -428
-427 -470 -5 -9 -24 -34 -41 -56 -46 -58 -105 -143 -105 -153 0 -12 -58 -100
-101 -152 -68 -84 -129 -165 -184 -245 -30 -44 -80 -114 -110 -155 -30 -41
-58 -82 -62 -90 -3 -8 -10 -17 -13 -20 -4 -3 -18 -22 -31 -42 -86 -132 -254
-373 -286 -411 -12 -16 -23 -32 -23 -37 0 -5 -22 -44 -48 -87 -26 -43 -53 -89
-60 -103 -6 -14 -34 -59 -61 -100 -54 -81 -102 -160 -139 -224 -13 -23 -35
-57 -50 -76 -16 -19 -41 -57 -57 -85 -17 -27 -34 -57 -40 -66 -52 -83 -130
-215 -140 -239 -4 -8 -11 -24 -17 -35 -21 -38 -111 -210 -180 -345 -39 -74
-76 -142 -84 -151 -20 -23 -17 -39 7 -39 12 0 63 6 113 14 222 35 457 44 681
26 254 -20 381 -41 495 -82 30 -11 73 -24 95 -29 41 -10 61 -19 195 -83 133
-64 190 -99 305 -188 16 -13 83 -75 148 -138 161 -156 253 -269 347 -430 11
-19 34 -57 50 -85 46 -79 140 -272 140 -288 0 -4 20 -56 45 -115 35 -84 52
-112 75 -125 16 -10 35 -27 41 -39 13 -24 75 -201 95 -272 7 -27 22 -72 32
-100 36 -98 102 -394 116 -516 13 -122 59 -447 77 -545 25 -135 49 -442 49
-632 0 -78 5 -197 10 -265 6 -68 14 -204 20 -303 5 -99 14 -232 19 -295 11
-129 24 -697 17 -689 -17 16 -54 302 -86 664 -5 61 -17 139 -25 175 -8 36 -18
101 -21 145 -3 44 -15 130 -26 190 -11 61 -23 137 -28 170 -36 282 -106 636
-174 885 -13 47 -36 138 -51 203 -20 84 -33 120 -44 124 -47 14 -43 5 -106
218 -15 50 -38 124 -51 165 -13 41 -35 116 -50 165 -34 113 -83 256 -153 442
-28 73 -46 110 -127 252 -11 20 -38 68 -59 106 -48 88 -154 247 -171 258 -8 4
-14 15 -14 23 0 29 -251 267 -355 337 -55 37 -125 84 -156 105 -31 22 -63 42
-70 45 -8 4 -48 32 -89 62 -41 31 -93 68 -115 82 -49 33 -385 203 -401 203 -7
0 -34 9 -61 21 -72 31 -196 48 -403 55 -186 7 -365 -5 -427 -26 -20 -7 -35
-22 -42 -41 -6 -16 -16 -43 -23 -60 -6 -18 -22 -44 -35 -59 -24 -29 -47 -111
-46 -170 0 -64 25 -203 66 -360 21 -85 43 -175 48 -200 5 -25 16 -59 24 -77
15 -31 55 -174 79 -283 7 -30 20 -84 29 -120 9 -36 28 -119 42 -185 43 -200
76 -345 101 -438 13 -48 24 -95 24 -104 0 -9 11 -66 25 -127 40 -176 94 -419
151 -686 14 -69 33 -150 40 -180 8 -30 30 -122 50 -205 19 -82 51 -202 69
-265 35 -119 46 -163 90 -365 15 -66 45 -192 67 -280 22 -88 45 -182 50 -210
6 -27 19 -84 30 -125 10 -41 25 -104 33 -140 22 -108 95 -400 121 -486 13 -44
24 -86 24 -94 0 -8 11 -50 25 -94 13 -45 36 -121 50 -171 14 -49 36 -128 50
-175 13 -47 34 -117 45 -157 12 -40 25 -98 30 -130 4 -32 17 -98 29 -146 12
-49 21 -101 21 -116 0 -16 11 -73 24 -127 13 -54 27 -117 31 -139 10 -66 93
-404 120 -491 14 -44 25 -89 25 -100 0 -10 11 -68 25 -129 32 -143 75 -382 75
-417 0 -48 60 -391 80 -453 10 -33 21 -82 25 -110 3 -27 39 -187 80 -355 41
-168 84 -345 95 -395 34 -158 81 -366 116 -510 18 -77 40 -174 49 -215 9 -41
28 -115 41 -165 13 -49 24 -98 24 -108 0 -16 14 -76 67 -297 16 -68 25 -110
67 -329 15 -74 33 -157 41 -185 8 -28 19 -85 24 -126 6 -42 17 -91 25 -110 24
-59 107 -421 121 -530 9 -67 54 -312 76 -415 11 -49 26 -133 34 -185 7 -52 22
-111 31 -130 25 -50 157 -177 196 -189 18 -6 80 -26 138 -47 138 -48 218 -51
305 -11 32 15 67 36 77 45 10 9 32 31 49 47 34 33 149 190 149 204 0 5 7 14
15 21 21 17 135 221 135 242 0 5 11 34 25 64 14 30 25 59 25 63 0 5 11 31 23
58 13 26 30 64 37 83 7 19 25 71 42 115 16 44 35 103 43 130 7 28 22 77 33
110 11 33 31 98 45 145 14 47 37 124 51 171 14 47 26 93 26 102 0 9 11 46 25
83 14 36 25 76 25 88 0 24 41 172 72 256 11 30 23 71 28 90 4 19 17 67 28 105
18 64 34 126 63 245 6 25 22 81 34 125 13 44 36 134 51 200 15 66 37 156 49
200 12 44 30 109 39 145 10 36 25 94 35 130 10 36 24 97 31 135 6 39 19 92 27
118 12 43 12 52 -1 73 -9 13 -98 92 -199 175 -100 84 -211 182 -246 218 -69
72 -191 223 -232 286 -14 22 -33 51 -42 65 -52 78 -84 128 -95 150 -7 14 -26
48 -42 75 -104 181 -143 263 -174 360 -16 50 -38 115 -48 145 -11 30 -26 91
-34 135 -7 44 -18 100 -23 125 -6 25 -10 59 -10 75 l1 30 13 -30 c8 -16 14
-39 15 -51 0 -25 110 -249 148 -303 88 -125 127 -177 136 -186 6 -6 16 -18 21
-27 62 -100 292 -347 430 -461 33 -27 89 -77 126 -111 36 -33 89 -81 118 -106
29 -25 64 -54 76 -65 43 -37 98 -80 156 -120 56 -39 174 -134 230 -185 15 -14
64 -59 109 -100 46 -41 104 -95 129 -120 25 -25 118 -111 206 -192 181 -165
402 -393 545 -561 14 -16 34 -39 45 -51 21 -21 37 -44 87 -120 65 -99 188
-352 188 -387 0 -6 11 -37 24 -68 58 -136 106 -435 106 -666 0 -155 -28 -441
-54 -550 -7 -33 -17 -82 -21 -110 -13 -97 -121 -445 -174 -560 -10 -22 -22
-56 -26 -75 -7 -34 -134 -298 -200 -415 -19 -33 -42 -76 -53 -95 -34 -61 -74
-134 -98 -175 -13 -22 -32 -56 -43 -76 -11 -19 -27 -41 -35 -48 -9 -8 -16 -18
-16 -23 0 -25 -195 -272 -314 -398 -153 -162 -355 -359 -506 -495 -133 -120
-424 -366 -461 -390 -9 -5 -40 -28 -69 -49 -29 -22 -65 -47 -81 -55 -15 -9
-53 -33 -84 -54 -110 -74 -84 -31 42 70 367 291 833 762 1083 1093 35 47 69
91 74 98 45 53 63 75 111 135 30 38 55 72 55 76 0 4 11 21 25 37 14 16 25 33
25 38 0 8 79 105 129 158 55 58 64 68 75 86 39 66 105 184 133 237 41 78 139
294 151 335 20 66 62 245 62 265 0 11 11 74 24 140 29 139 56 362 64 518 5
119 -17 245 -64 362 -13 33 -24 64 -24 69 0 5 -30 70 -67 144 -86 170 -93 184
-109 202 -7 8 -31 51 -55 95 -23 44 -59 109 -80 144 -22 34 -39 66 -40 70 0 3
-20 33 -44 66 -25 33 -51 74 -58 90 -8 17 -21 36 -30 44 -10 7 -17 19 -17 26
0 8 -11 27 -25 43 -14 17 -25 33 -25 37 0 20 -119 186 -169 236 -9 8 -32 37
-51 63 -62 85 -292 360 -339 405 -86 82 -292 206 -331 199 -11 -2 -17 -22 -21
-75 -4 -39 -14 -93 -22 -120 -9 -26 -19 -68 -22 -93 -4 -25 -26 -115 -50 -200
-24 -85 -48 -180 -54 -210 -5 -30 -16 -74 -25 -97 -8 -23 -18 -63 -21 -90 -4
-26 -17 -86 -30 -133 -13 -47 -35 -139 -50 -205 -15 -66 -35 -149 -46 -185
-10 -36 -19 -71 -19 -78 0 -6 -11 -44 -24 -84 -13 -40 -31 -102 -41 -138 -9
-36 -25 -99 -35 -140 -11 -41 -31 -120 -46 -175 -14 -55 -33 -129 -41 -165
-30 -132 -65 -267 -85 -325 -11 -33 -26 -87 -33 -120 -14 -58 -26 -96 -95
-290 -17 -49 -38 -112 -46 -140 -9 -27 -27 -75 -40 -105 -25 -54 -31 -66 -52
-105 -6 -11 -25 -49 -43 -85 -36 -73 -51 -92 -158 -206 -87 -92 -148 -138
-240 -178 -59 -26 -71 -28 -160 -24 -57 3 -114 12 -141 22 -25 10 -62 21 -82
25 -64 14 -181 78 -255 141 -72 60 -271 258 -308 306 -11 15 -31 40 -45 58
-14 17 -35 44 -45 60 -43 62 -51 75 -92 134 -24 34 -43 65 -43 70 0 5 -7 15
-15 22 -8 6 -26 33 -41 58 -14 26 -38 67 -52 92 -14 25 -33 59 -43 75 -10 17
-31 53 -45 80 -15 28 -50 88 -78 135 -54 90 -309 598 -332 663 -19 55 -224
477 -302 621 -43 82 -71 141 -151 328 -11 25 -35 79 -55 120 -19 40 -49 107
-66 148 -87 208 -248 569 -260 585 -12 16 -120 261 -120 273 0 5 -9 27 -19 49
-21 40 -60 131 -106 248 -28 73 -73 179 -106 252 -10 24 -19 47 -19 53 0 10
-36 105 -76 203 -61 145 -75 179 -123 287 -27 63 -64 155 -81 204 -17 49 -37
103 -45 120 -8 17 -24 58 -35 91 -12 33 -44 123 -72 200 -27 77 -56 160 -63
185 -7 25 -20 63 -29 85 -9 22 -21 56 -26 75 -4 19 -25 80 -45 135 -62 170
-86 238 -100 285 -7 25 -29 88 -50 140 -52 138 -85 229 -100 280 -7 25 -22 70
-33 100 -20 57 -36 107 -117 365 -25 83 -55 177 -66 210 -12 33 -27 85 -34
115 -7 30 -23 84 -35 120 -11 36 -33 103 -47 150 -14 47 -36 119 -48 160 -13
41 -35 118 -49 170 -31 114 -73 248 -97 310 -28 76 -60 172 -74 225 -7 28 -30
106 -50 175 -21 69 -44 150 -50 180 -7 30 -23 91 -35 135 -52 184 -60 213 -75
270 -8 33 -22 89 -31 125 -21 88 -62 248 -89 345 -13 44 -35 134 -50 200 -30
131 -67 265 -92 335 -21 59 -60 200 -77 275 -8 33 -23 96 -34 140 -45 180
-122 520 -122 538 0 9 -11 56 -24 104 -13 48 -29 117 -36 153 -6 36 -15 69
-20 74 -18 19 -224 -121 -395 -269 -147 -127 -510 -507 -524 -548 -2 -7 -17
-27 -32 -45 -16 -18 -38 -49 -49 -70 -11 -20 -38 -66 -60 -101 -22 -34 -40
-67 -40 -73 0 -5 -8 -22 -18 -36 -34 -50 -182 -377 -182 -401 0 -7 -9 -30 -20
-51 -11 -22 -27 -70 -35 -107 -8 -38 -23 -94 -34 -126 -38 -108 -62 -320 -69
-606 l-7 -266 -18 74 c-36 147 -31 520 9 599 8 18 19 58 24 90 5 31 18 93 29
136 12 44 21 92 21 107 0 16 11 58 25 95 14 36 25 76 25 87 0 11 12 45 26 76
25 53 44 95 98 213 13 29 31 69 40 88 15 33 20 43 46 88 6 9 18 33 28 52 9 19
27 49 38 65 12 17 24 40 28 51 4 12 15 29 26 39 11 10 20 22 20 27 0 16 96
136 191 240 241 261 438 442 567 523 53 33 114 75 165 114 64 49 71 72 41 152
-19 52 -109 484 -129 618 -8 52 -23 131 -34 175 -11 45 -32 140 -46 211 -14
72 -36 171 -50 220 -13 50 -36 164 -50 255 -14 91 -34 208 -45 260 -11 52 -25
145 -30 205 -6 61 -17 133 -25 160 -18 59 -49 247 -65 395 -6 58 -22 179 -35
270 -47 322 -56 397 -66 545 -6 83 -19 209 -30 280 -11 72 -24 219 -30 328 -5
109 -18 260 -29 335 -29 203 -48 469 -60 812 -5 168 -15 427 -21 575 -12 289
-9 511 11 967 15 321 13 338 -39 338 -16 0 -83 9 -148 21 -65 12 -129 23 -143
24 -344 49 -346 49 -452 36 -221 -26 -306 -40 -373 -60 -38 -11 -84 -21 -101
-21 -29 0 -158 -30 -198 -46 -16 -6 -18 -15 -13 -78 24 -289 28 -486 25 -1063
-5 -654 -3 -620 -58 -1133 -11 -102 -25 -277 -30 -390 -6 -113 -14 -248 -19
-300 -5 -52 -14 -156 -21 -230 -6 -74 -20 -200 -31 -279 -11 -79 -24 -203 -29
-275 -5 -72 -16 -162 -25 -201 -9 -38 -20 -119 -25 -180 -5 -61 -19 -157 -30
-214 -11 -56 -20 -113 -20 -126 0 -13 -9 -61 -20 -107 -11 -46 -24 -132 -29
-193 -6 -60 -20 -156 -31 -213 -11 -56 -20 -117 -20 -135 0 -18 -9 -63 -20
-102 -11 -38 -23 -99 -26 -135 -3 -36 -14 -108 -24 -160 -11 -53 -22 -122 -26
-155 -6 -62 -38 -204 -80 -360 -13 -49 -24 -104 -24 -122 0 -17 -9 -69 -20
-115 -10 -46 -23 -114 -28 -153 -10 -79 -42 -240 -78 -395 -13 -58 -24 -126
-24 -152 0 -44 3 -49 53 -90 28 -24 82 -63 120 -86 37 -23 73 -46 80 -51 244
-197 504 -454 623 -616 8 -11 24 -32 35 -47 28 -38 89 -129 89 -133 0 -2 19
-32 43 -67 24 -35 50 -76 59 -93 8 -16 31 -59 50 -95 66 -123 170 -384 194
-489 9 -36 20 -71 25 -77 27 -33 49 -223 29 -254 -13 -20 -36 37 -50 123 -5
36 -19 87 -30 112 -11 26 -20 55 -20 65 0 9 -11 43 -25 74 -14 31 -25 64 -25
73 0 31 -91 235 -158 353 -14 25 -30 54 -36 65 -6 11 -21 34 -33 52 -13 17
-23 35 -23 40 0 4 -11 20 -24 34 -13 14 -26 35 -30 46 -4 11 -15 28 -26 38
-11 10 -20 23 -20 29 0 6 -11 23 -25 38 -14 15 -25 30 -25 34 0 6 -13 22 -129
154 -83 95 -353 356 -429 415 -7 5 -22 17 -32 27 -28 25 -222 155 -252 169
-30 13 -58 0 -58 -28 0 -7 -9 -32 -20 -53 -11 -22 -23 -61 -26 -87 -8 -74 -53
-299 -78 -393 -35 -130 -58 -220 -68 -275 -5 -27 -21 -93 -34 -146 -13 -53
-24 -107 -24 -120 0 -13 -11 -58 -24 -99 -50 -156 -76 -247 -76 -266 0 -11 -9
-46 -20 -77 -11 -32 -24 -83 -29 -115 -9 -62 -39 -174 -77 -292 -13 -41 -24
-85 -24 -98 0 -21 -14 -75 -74 -287 -23 -78 -28 -99 -67 -240 -18 -68 -31
-110 -84 -282 -14 -45 -25 -93 -25 -105 0 -13 -11 -56 -25 -96 -14 -41 -25
-83 -25 -93 0 -11 -7 -33 -15 -48 -8 -16 -23 -59 -33 -97 -11 -38 -27 -89 -35
-114 -9 -25 -28 -88 -43 -140 -28 -98 -53 -183 -98 -330 -14 -47 -26 -92 -26
-100 0 -8 -11 -48 -24 -90 -14 -41 -37 -118 -52 -170 -15 -52 -38 -123 -51
-157 -12 -34 -23 -66 -23 -72 0 -6 -11 -34 -24 -63 -28 -61 -76 -206 -76 -228
0 -8 -11 -44 -23 -80 -13 -36 -37 -105 -52 -155 -16 -49 -39 -119 -52 -155
-13 -36 -23 -70 -23 -76 0 -7 -10 -33 -22 -60 -11 -27 -25 -62 -29 -79 -4 -16
-27 -82 -49 -145 -23 -63 -45 -128 -50 -145 -4 -16 -17 -57 -29 -90 -11 -33
-38 -112 -60 -175 -22 -63 -48 -137 -59 -165 -53 -132 -95 -243 -102 -270 -5
-16 -18 -55 -30 -85 -49 -120 -63 -155 -75 -199 -7 -25 -25 -77 -40 -116 -15
-38 -37 -97 -50 -130 -13 -33 -40 -98 -60 -145 -20 -47 -40 -96 -42 -110 -3
-14 -10 -30 -14 -36 -8 -10 -35 -77 -78 -194 -9 -25 -37 -88 -63 -140 -25 -52
-60 -132 -77 -177 -17 -45 -40 -98 -51 -118 -11 -20 -20 -42 -20 -49 0 -8 -11
-34 -25 -57 -14 -24 -25 -51 -25 -59 0 -15 -58 -159 -84 -209 -14 -26 -29 -59
-84 -181 -50 -111 -142 -327 -142 -333 0 -3 -31 -70 -69 -149 -140 -293 -171
-359 -171 -368 0 -5 -56 -124 -125 -265 -69 -141 -125 -258 -125 -262 0 -3
-22 -51 -49 -107 -27 -55 -66 -139 -86 -186 -21 -47 -41 -90 -46 -96 -5 -6
-23 -40 -40 -75 -93 -196 -210 -426 -260 -511 -32 -53 -68 -116 -81 -139 -13
-23 -28 -49 -33 -58 -6 -9 -24 -38 -40 -66 -47 -81 -103 -148 -154 -185 -44
-32 -144 -142 -167 -182 -25 -45 -218 -246 -324 -337 -88 -77 -153 -116 -282
-171 -61 -26 -82 -30 -165 -30 -82 0 -104 4 -157 27 -113 50 -254 179 -321
294 -5 10 -29 45 -52 79 -24 34 -43 66 -43 71 0 5 -11 27 -25 49 -14 22 -25
44 -25 50 0 5 -11 33 -24 62 -30 66 -51 127 -102 293 -15 50 -37 119 -49 155
-40 114 -75 236 -75 256 0 10 -11 52 -25 92 -14 41 -25 86 -25 102 0 15 -7 47
-16 71 -18 51 -73 256 -84 314 -4 22 -16 72 -27 110 -12 39 -25 93 -31 120
-11 57 -32 135 -67 251 -14 44 -25 89 -25 100 0 10 -12 57 -26 104 -56 184
-64 217 -70 265 -3 28 -17 86 -30 130 -62 210 -74 252 -74 267 0 9 -11 48 -25
86 -14 38 -25 77 -25 85 0 24 -49 194 -73 254 -14 36 -26 53 -38 53 -27 0
-184 -102 -242 -157 -121 -114 -339 -364 -392 -451 -5 -9 -42 -57 -81 -107
-58 -75 -172 -240 -337 -488 -15 -23 -34 -55 -42 -72 -9 -16 -22 -41 -30 -55
-48 -81 -214 -390 -220 -411 -4 -13 -16 -40 -26 -59 -11 -19 -19 -42 -19 -51
0 -9 -9 -36 -19 -60 -11 -24 -24 -72 -31 -106 -6 -34 -17 -78 -25 -97 -20 -47
-19 -95 5 -207 11 -52 20 -128 20 -169 1 -109 38 -358 81 -545 21 -88 51 -181
91 -280 11 -27 23 -63 28 -80 7 -29 91 -214 110 -245 6 -8 18 -31 29 -50 10
-19 28 -44 40 -54 12 -11 21 -23 21 -28 0 -5 29 -39 64 -76 73 -76 161 -182
223 -269 96 -133 144 -197 168 -226 10 -11 55 -69 116 -147 92 -119 238 -287
345 -397 285 -291 236 -244 454 -429 63 -53 123 -105 133 -115 10 -11 21 -19
25 -19 4 0 23 -15 42 -33 19 -17 68 -59 109 -92 40 -32 69 -61 63 -63 -5 -1
-47 23 -93 56 -119 83 -269 191 -304 219 -16 13 -34 27 -40 31 -138 105 -219
169 -255 203 -318 296 -525 498 -596 580 -125 146 -151 176 -174 199 -52 51
-119 137 -172 220 -30 47 -63 98 -74 114 -21 33 -68 110 -85 141 -6 11 -25 46
-42 78 -37 66 -148 289 -182 362 -12 28 -34 75 -48 105 -39 85 -57 132 -77
201 -10 35 -34 109 -54 164 -33 91 -55 175 -117 445 -16 70 -24 152 -31 315
-16 365 7 613 78 836 13 42 24 82 24 88 0 20 110 251 155 326 13 22 32 55 41
73 10 17 21 32 26 32 4 0 14 13 23 29 15 30 86 122 158 205 71 82 535 533 748
726 157 143 211 190 217 190 10 0 92 91 92 102 0 16 -59 194 -82 246 -10 23
-22 59 -27 80 -5 20 -18 60 -29 87 -11 28 -24 68 -30 90 -12 49 -38 126 -63
183 -11 23 -23 59 -28 80 -18 74 -80 238 -132 348 -10 23 -19 46 -19 52 0 6
-11 33 -25 60 -14 28 -25 55 -25 61 0 7 -11 34 -25 61 -14 27 -25 54 -25 60 0
5 -11 33 -25 62 -14 28 -25 57 -25 63 0 9 -80 173 -137 280 -6 11 -37 74 -69
140 -54 111 -100 196 -145 270 -10 17 -42 72 -71 124 -29 52 -66 117 -82 145
-193 345 -223 406 -319 671 -100 273 -146 517 -147 773 0 132 25 339 51 411
10 30 19 63 19 73 0 10 11 42 25 72 14 30 25 59 25 64 0 24 91 200 128 246 12
16 22 33 22 38 0 5 19 34 43 65 23 30 47 64 53 75 6 10 20 29 31 41 20 22 49
64 69 99 6 10 18 26 27 36 9 9 45 51 79 92 35 42 95 109 133 149 129 136 195
210 235 261 34 44 101 124 109 130 14 10 171 198 171 204 0 4 30 45 67 93 36
47 74 103 84 123 10 20 25 42 33 50 9 7 16 18 16 26 0 7 6 17 14 21 8 4 22 22
32 39 61 100 113 168 122 159 5 -4 -8 -35 -45 -108 -44 -86 -104 -186 -115
-193 -5 -3 -13 -16 -19 -27 -5 -12 -25 -42 -44 -67 -19 -25 -41 -56 -48 -70
-17 -35 -73 -118 -107 -160 -90 -110 -354 -426 -360 -430 -3 -3 -42 -45 -85
-95 -44 -49 -94 -106 -112 -125 -18 -19 -33 -38 -33 -42 0 -4 -7 -14 -16 -22
-37 -38 -198 -260 -296 -409 -43 -66 -138 -267 -138 -293 0 -8 -11 -40 -25
-70 -14 -30 -25 -62 -25 -72 0 -9 -7 -51 -17 -92 -23 -106 -23 -406 0 -555 22
-135 37 -207 47 -220 5 -5 13 -32 18 -60 11 -53 63 -209 87 -262 8 -17 15 -36
15 -43 0 -7 11 -33 24 -59 13 -25 61 -120 106 -211 44 -91 97 -192 116 -225
19 -33 41 -74 49 -92 8 -17 19 -34 25 -38 6 -3 19 -23 29 -43 10 -20 31 -59
46 -87 167 -298 455 -904 455 -958 0 -6 9 -29 19 -51 11 -23 26 -59 34 -81 8
-22 29 -78 46 -125 18 -47 52 -143 76 -215 24 -71 52 -152 61 -180 22 -65 58
-170 73 -215 6 -19 29 -87 50 -150 52 -156 70 -218 77 -273 5 -36 11 -47 25
-47 35 0 456 368 710 620 110 110 207 220 261 295 4 5 21 26 38 46 16 20 30
40 30 43 0 4 10 22 23 39 23 31 48 80 100 197 13 30 36 80 51 111 14 31 26 66
26 79 0 29 20 102 32 115 11 12 2 -57 -18 -136 -8 -31 -14 -80 -14 -109 0 -31
-10 -76 -24 -113 -14 -34 -39 -111 -57 -172 -27 -92 -105 -281 -140 -335 -5
-8 -20 -37 -34 -65 -14 -27 -38 -72 -54 -100 -16 -27 -34 -59 -39 -71 -25 -51
-139 -208 -221 -302 -121 -140 -241 -253 -436 -411 -103 -84 -124 -107 -125
-139 0 -23 24 -111 58 -217 37 -112 72 -240 72 -262 0 -12 11 -57 24 -100 12
-43 33 -121 46 -173 12 -52 35 -134 51 -183 16 -48 29 -97 29 -110 0 -12 9
-41 20 -64 10 -24 23 -67 29 -95 5 -29 14 -66 20 -81 6 -16 20 -68 31 -115 11
-48 31 -125 44 -172 40 -143 72 -262 90 -330 29 -112 93 -320 136 -445 10 -27
27 -77 38 -110 34 -102 44 -128 68 -182 13 -28 24 -55 24 -60 0 -15 87 -229
113 -278 6 -11 30 -56 53 -100 23 -44 58 -107 78 -140 20 -33 42 -73 51 -90 8
-16 38 -59 67 -95 192 -234 408 -229 668 17 39 36 70 72 70 79 0 8 4 22 10 32
19 34 40 113 40 150 0 20 11 83 25 140 14 57 25 122 25 145 0 54 16 157 35
227 27 102 65 280 65 308 0 15 12 65 25 111 14 47 25 96 25 111 0 14 11 70 25
125 14 55 25 118 25 140 0 22 9 74 21 115 12 41 25 107 30 145 9 67 27 142 70
289 12 37 25 96 29 129 8 55 14 66 53 102 47 44 43 33 121 365 15 63 36 151
48 195 11 44 24 109 29 145 5 36 18 97 28 135 10 39 31 124 46 190 15 66 37
163 50 215 24 96 52 219 98 430 14 63 37 167 51 230 14 63 37 210 51 325 14
116 32 246 41 290 9 44 20 103 26 130 5 28 18 88 29 135 12 47 27 112 34 145
7 33 21 80 29 104 9 24 16 53 16 65 0 11 11 62 24 111 13 50 36 146 51 215 15
69 38 166 51 216 13 51 24 102 24 115 0 25 40 228 67 339 8 36 24 101 33 146
10 44 25 102 33 130 14 47 34 125 58 224 6 25 21 81 34 125 21 74 38 138 66
255 6 25 21 79 34 120 42 137 101 370 121 477 7 40 22 103 33 140 10 38 31
127 46 198 29 138 62 275 96 390 11 39 24 93 29 120 5 28 18 83 29 122 12 40
21 85 21 99 0 14 11 72 25 128 40 164 73 318 79 368 3 26 15 74 26 107 11 33
20 70 20 83 0 12 11 63 24 113 36 136 65 260 87 364 11 52 24 102 30 112 5 10
9 31 9 47 0 16 11 69 25 116 14 47 25 99 25 115 0 16 11 68 25 115 14 47 25
95 25 107 0 11 11 65 25 121 14 56 25 111 25 124 0 12 11 54 25 92 14 38 25
79 25 90 0 12 11 56 25 99 14 43 25 87 25 98 0 11 11 58 24 105 40 143 76 303
76 340 0 19 11 56 25 82 34 65 35 152 1 217 -40 76 -76 159 -76 174 0 22 -42
54 -85 66 -185 48 -664 25 -808 -38 -27 -11 -54 -21 -62 -21 -19 0 -327 -159
-351 -181 -11 -10 -23 -19 -26 -19 -3 0 -34 -19 -68 -42 -34 -24 -73 -50 -86
-58 -165 -104 -459 -335 -559 -440 -22 -23 -64 -58 -93 -77 -89 -60 -179 -177
-273 -354 -8 -14 -26 -48 -40 -75 -49 -92 -99 -195 -99 -205 0 -5 -11 -32 -25
-59 -14 -27 -25 -54 -25 -60 0 -7 -10 -39 -23 -73 -26 -69 -35 -94 -79 -217
-16 -47 -34 -89 -39 -94 -5 -6 -9 -18 -9 -28 0 -10 -11 -51 -25 -90 -14 -39
-25 -82 -25 -95 0 -13 -9 -49 -21 -81 -34 -95 -98 -363 -154 -647 -14 -71 -37
-176 -50 -232 -14 -55 -25 -111 -25 -123 0 -13 -11 -73 -24 -134 -47 -211 -66
-321 -77 -436 -6 -63 -17 -144 -25 -180 -7 -36 -23 -168 -34 -295 -11 -126
-25 -257 -30 -290 -5 -33 -20 -136 -32 -230 l-23 -170 -3 80 c-2 44 1 161 7
260 6 99 11 241 11 315 0 74 5 200 11 280 5 80 14 264 19 410 8 238 16 367 49
775 5 66 18 161 29 210 11 50 23 124 26 165 3 41 12 113 21 160 9 47 20 112
25 146 5 33 18 89 30 125 11 35 20 75 20 89 0 14 11 60 25 103 14 43 25 85 25
95 0 9 12 55 26 102 14 47 38 123 52 170 39 130 71 220 98 275 13 28 24 56 24
63 0 6 11 33 24 59 13 27 36 75 51 108 15 33 32 69 38 80 6 11 18 34 27 51 9
16 25 43 36 60 11 16 26 40 32 54 20 38 52 91 105 169 77 113 292 321 333 321
5 0 34 18 64 40 52 38 79 57 160 115 106 76 197 127 300 167 58 23 107 38 300
92 176 49 606 79 820 57 120 -13 231 -26 313 -37 54 -8 55 -5 33 67 -15 49
-36 92 -86 174 -17 28 -37 64 -45 82 -8 17 -20 35 -26 38 -6 4 -19 26 -30 49
-10 22 -34 68 -54 101 -19 33 -42 74 -50 90 -9 17 -23 44 -32 60 -9 17 -20 37
-24 45 -11 21 -71 118 -91 149 -10 14 -29 47 -43 73 -13 26 -29 49 -35 53 -6
3 -19 23 -30 43 -11 20 -32 55 -45 77 -14 22 -34 56 -45 75 -11 19 -38 64 -60
99 -22 34 -40 64 -40 66 0 2 -18 29 -40 61 -23 33 -58 85 -78 117 -114 177
-186 284 -208 311 -15 17 -63 88 -109 157 -45 70 -88 133 -94 140 -21 25 -151
193 -176 229 -14 19 -35 49 -47 67 -71 98 -159 233 -187 283 -11 19 -28 44
-38 56 -10 11 -22 27 -28 36 -60 93 -194 242 -240 265 -37 19 -127 96 -203
174 -243 249 -309 311 -432 409 -58 46 -115 93 -127 104 -51 49 -71 65 -128
107 -33 24 -62 46 -65 50 -3 3 -40 27 -83 55 -43 27 -91 57 -105 66 -43 28
-223 115 -334 163 -51 21 -228 72 -280 79 -109 16 -401 94 -473 126 -22 9 -51
21 -65 25 -14 4 -64 30 -113 56 -48 27 -89 49 -92 49 -12 0 -185 117 -235 159
-114 95 -296 276 -389 387 -23 27 -125 159 -136 175 -5 9 -37 55 -70 103 -100
148 -125 186 -125 195 0 5 -6 14 -14 20 -8 7 -24 31 -36 54 -12 23 -34 65 -49
92 -15 28 -39 70 -52 95 -14 25 -30 54 -36 65 -27 49 -163 332 -163 340 0 4
-9 26 -19 49 -58 124 -81 180 -81 200 0 12 -8 37 -19 56 -10 19 -30 78 -45
130 -15 52 -29 100 -31 107 -2 7 -1 15 4 17 9 6 71 -116 96 -189 10 -27 22
-54 26 -59 5 -6 9 -17 9 -27 0 -9 11 -37 25 -63 14 -26 25 -52 25 -58 0 -35
308 -627 377 -725 13 -17 28 -42 33 -55 17 -39 129 -204 179 -264 14 -18 34
-42 44 -55 116 -153 169 -214 290 -334 130 -129 280 -260 317 -278 8 -4 40
-23 70 -41 51 -31 107 -61 220 -116 70 -34 218 -81 289 -91 35 -5 100 -18 145
-28 44 -10 108 -24 141 -30 54 -10 154 -41 275 -85 46 -17 163 -75 283 -140
123 -66 187 -108 258 -168 31 -26 61 -48 66 -48 5 0 16 -8 24 -17 9 -10 25
-25 35 -33 58 -45 192 -156 209 -172 11 -10 56 -51 100 -90 44 -40 150 -142
235 -228 93 -94 184 -175 226 -204 120 -78 317 -307 413 -481 43 -76 118 -186
201 -295 36 -47 83 -112 105 -145 21 -33 57 -83 79 -112 23 -29 64 -84 91
-123 28 -39 60 -86 73 -103 13 -18 63 -93 111 -167 48 -74 101 -155 117 -179
37 -56 82 -128 104 -166 9 -16 54 -88 99 -160 45 -71 87 -139 94 -150 7 -11
21 -33 32 -50 12 -16 26 -41 33 -55 7 -14 25 -46 40 -71 56 -97 84 -146 126
-224 24 -44 56 -102 71 -130 16 -27 42 -75 58 -105 16 -30 38 -71 49 -90 11
-19 27 -48 36 -65 10 -16 26 -43 38 -60 11 -16 37 -66 58 -110 21 -44 43 -91
51 -105 17 -32 125 -109 165 -116 27 -6 30 -4 30 17 -1 13 -7 35 -15 49 -8 14
-14 36 -15 50 0 27 -41 154 -77 241 -13 31 -23 64 -23 73 0 9 -11 39 -25 66
-14 27 -25 56 -25 64 0 8 -11 34 -25 57 -14 24 -25 50 -25 57 0 7 -22 60 -50
118 -27 58 -50 111 -50 118 0 12 -37 85 -109 216 -38 68 -77 155 -93 210 -9
32 -71 166 -166 360 -21 41 -55 104 -76 140 -40 67 -53 89 -126 225 -23 44
-50 89 -60 100 -9 11 -74 107 -145 214 -71 106 -157 227 -191 269 -35 42 -71
92 -79 111 -28 62 -57 114 -107 188 -26 39 -48 75 -48 79 0 4 -11 24 -23 43
-13 20 -32 49 -43 65 -10 16 -23 36 -29 44 -5 9 -30 42 -55 73 -64 81 -85 118
-142 243 -42 95 -87 176 -158 291 -51 81 -114 194 -161 284 -50 97 -87 143
-178 224 -17 16 -46 51 -63 78 -18 27 -36 49 -40 49 -5 0 -8 4 -8 10 0 15 -64
97 -134 170 -33 36 -70 78 -81 94 -11 16 -27 39 -35 50 -8 12 -24 37 -35 55
-11 18 -30 46 -42 61 -13 15 -23 31 -23 34 0 16 -106 143 -195 231 -111 111
-131 129 -260 234 -49 41 -92 77 -95 81 -10 13 -191 130 -202 130 -6 0 -26 11
-44 25 -18 14 -35 25 -37 25 -3 0 -45 24 -94 53 -90 52 -215 113 -443 215
-113 50 -296 112 -420 141 -91 22 -177 43 -245 62 -38 11 -99 27 -135 34 -218
49 -352 116 -547 275 -86 71 -303 321 -329 380 -4 8 -15 24 -26 35 -32 34
-128 164 -128 174 0 5 -6 16 -14 23 -7 8 -23 32 -34 54 -11 22 -28 46 -36 53
-9 8 -16 18 -16 24 0 6 -8 19 -17 29 -21 23 -55 79 -82 133 -11 22 -31 56 -43
75 -13 20 -32 51 -43 69 -11 18 -30 46 -42 61 -13 15 -23 32 -23 38 0 5 -7 16
-16 23 -15 12 -48 58 -79 108 -5 9 -20 31 -32 48 -13 17 -23 35 -23 41 0 5 -6
14 -13 20 -30 25 -123 235 -136 307 -6 28 -17 68 -27 90 -21 48 -44 174 -34
180 13 8 27 -17 48 -81 11 -34 27 -75 36 -92 9 -17 16 -38 16 -46 0 -47 185
-382 242 -439 10 -10 18 -21 18 -26 0 -22 205 -213 287 -268 162 -108 489
-253 569 -253 12 0 66 -11 120 -24 181 -44 274 -51 599 -46 743 12 853 6 1065
-58 114 -34 269 -89 302 -107 14 -8 31 -15 37 -15 17 0 180 -107 241 -159 30
-25 87 -77 126 -116 40 -38 89 -86 110 -106 67 -63 167 -187 264 -324 14 -20
37 -52 53 -72 15 -20 27 -39 27 -43 0 -5 18 -37 39 -71 22 -35 55 -94 75 -131
62 -117 93 -159 139 -188 47 -29 74 -69 169 -250 134 -253 230 -395 367 -543
49 -52 182 -164 230 -192 41 -24 149 -118 186 -162 43 -52 99 -135 152 -228 6
-11 40 -67 75 -125 72 -119 188 -373 273 -595 12 -33 39 -99 59 -147 20 -48
36 -94 36 -102 0 -8 11 -41 24 -73 26 -65 51 -136 73 -203 8 -25 23 -65 33
-90 10 -25 30 -103 45 -175 15 -71 37 -159 50 -195 13 -36 25 -74 28 -85 3
-11 14 -42 25 -70 30 -77 88 -269 147 -490 15 -55 36 -125 46 -155 11 -30 28
-84 38 -120 10 -36 23 -78 29 -95 18 -51 62 -213 62 -228 0 -14 9 -48 74 -277
13 -47 27 -112 30 -145 3 -33 15 -84 26 -113 11 -29 20 -65 20 -80 1 -15 14
-76 29 -137 28 -107 51 -145 86 -145 8 0 19 52 35 166 12 91 26 180 31 197 6
18 14 73 20 122 5 50 18 126 28 170 10 44 24 118 31 165 7 47 19 108 26 135 8
28 14 68 14 90 0 22 9 78 20 125 11 47 25 119 30 160 5 41 19 111 30 154 11
44 20 93 20 110 0 17 11 75 25 129 14 54 25 113 25 131 0 19 11 73 25 120 14
47 25 98 25 112 0 15 11 72 24 128 13 55 27 130 30 166 3 36 12 90 21 120 9
30 20 82 26 115 5 33 18 90 29 127 11 36 20 76 20 88 0 12 11 68 24 124 22 92
42 188 67 321 11 58 50 238 74 340 9 39 21 93 26 120 6 28 21 100 35 160 13
61 24 123 24 138 0 16 11 62 25 103 14 41 25 85 25 99 0 13 11 59 25 102 14
43 25 88 25 100 0 12 11 57 24 100 13 43 26 101 29 128 3 28 14 78 25 110 11
33 23 80 26 105 3 25 14 74 26 109 11 35 20 77 20 93 0 16 11 63 24 106 54
177 92 340 80 351 -11 10 -226 -2 -404 -23 -74 -9 -200 -20 -280 -26 -80 -5
-230 -17 -335 -25 -480 -40 -591 -45 -995 -45 -450 0 -624 9 -883 46 -93 13
-196 24 -230 24 -79 0 -247 24 -275 39 -11 6 -36 11 -54 12 -18 0 -49 7 -68
14 -32 12 -33 14 -10 14 14 1 50 -5 80 -13 30 -8 150 -22 265 -31 116 -9 233
-21 260 -25 28 -5 192 -14 365 -21 367 -14 1116 1 1335 26 72 8 198 19 280 25
139 9 329 27 700 66 273 29 295 35 295 76 0 10 9 47 21 81 11 34 25 88 30 120
5 33 16 78 24 100 9 23 19 71 25 108 5 36 19 86 30 112 15 34 20 63 18 104
l-3 57 -45 17 c-45 17 -180 55 -295 83 -104 25 -219 57 -250 70 -16 7 -46 18
-65 25 -19 7 -78 28 -130 47 -52 19 -109 39 -125 43 -17 4 -46 15 -65 24 -32
14 -83 34 -180 67 -52 19 -126 50 -320 135 -152 67 -225 102 -365 173 -45 23
-198 115 -211 127 -7 5 -31 26 -55 45 -74 58 -163 152 -202 211 -30 46 -37 65
-37 105 0 80 59 161 160 221 56 33 161 74 215 83 28 4 93 18 145 29 52 11 120
21 151 21 30 0 80 5 111 10 178 33 832 37 1033 6z m7905 -2324 c0 -10 -142
-32 -199 -32 -56 0 -30 9 65 24 109 17 134 18 134 8z m3192 -14 c-7 -7 -12 -8
-12 -2 0 14 12 26 19 19 2 -3 -1 -11 -7 -17z m-42 -53 c-7 -9 -15 -13 -17 -11
-7 7 7 26 19 26 6 0 6 -6 -2 -15z m-40 -49 c0 -3 -4 -8 -10 -11 -5 -3 -10 -1
-10 4 0 6 5 11 10 11 6 0 10 -2 10 -4z m-89 -103 c-77 -92 -233 -218 -392
-318 -92 -57 -160 -95 -171 -95 -7 0 -22 -6 -33 -14 -11 -7 -69 -30 -128 -50
-87 -30 -120 -36 -170 -34 l-62 3 80 17 c109 24 249 71 312 105 102 55 313
185 313 192 0 4 10 13 23 19 12 6 76 60 142 120 66 61 122 108 124 107 2 -2
-15 -26 -38 -52z m-17009 -63 c52 -47 65 -58 86 -69 12 -6 22 -16 22 -21 0
-18 -22 -10 -48 18 -15 15 -40 39 -57 52 -16 14 -37 34 -45 45 -14 19 -14 19
5 5 11 -8 28 -21 37 -30z m160 -128 c7 -10 38 -33 68 -51 30 -19 84 -53 120
-76 36 -23 84 -51 107 -63 23 -11 50 -25 60 -31 37 -20 160 -60 223 -72 36 -7
79 -18 95 -25 29 -13 28 -13 -20 -8 -105 10 -128 15 -163 33 -21 10 -50 21
-67 24 -63 12 -276 127 -320 172 -5 6 -40 31 -77 55 -37 25 -68 48 -68 53 0
14 29 7 42 -11z m924 -348 c240 -35 280 -42 309 -54 25 -11 27 -14 11 -18 -19
-4 -80 6 -206 32 -36 8 -110 20 -165 27 -55 6 -109 15 -120 20 -35 14 53 10
171 -7z m14863 12 c-2 -2 -51 -13 -109 -25 -58 -11 -148 -30 -200 -41 -52 -11
-112 -20 -132 -20 -36 0 -95 -22 -201 -76 -59 -30 -91 -33 -54 -4 14 11 30 20
35 20 6 0 30 11 53 25 24 14 54 25 66 25 12 0 39 9 60 20 46 23 152 47 288 65
100 12 202 19 194 11z m-14390 -122 c29 -13 59 -24 66 -24 7 0 23 -9 36 -21
l24 -20 -29 6 c-16 3 -41 15 -54 26 -14 10 -36 19 -51 20 -14 0 -48 11 -76 24
l-50 23 40 -5 c22 -3 64 -16 94 -29z m182 -94 c18 -15 20 -19 8 -20 -9 0 -24
9 -34 20 -23 26 -4 26 26 0z m13464 0 c-10 -11 -25 -20 -34 -20 -12 1 -10 5 8
20 30 26 49 26 26 0z m-13375 -71 c23 -22 39 -43 36 -46 -6 -6 -96 68 -96 79
0 17 19 6 60 -33z m13320 31 c0 -5 -9 -14 -20 -20 -22 -12 -27 -1 -8 18 14 14
28 16 28 2z m-65 -60 c-10 -11 -20 -18 -23 -15 -7 6 18 35 31 35 5 0 2 -9 -8
-20z m-13181 -46 c4 -10 1 -14 -6 -12 -15 5 -23 28 -10 28 5 0 13 -7 16 -16z
m13146 8 c0 -11 -22 -32 -32 -32 -5 0 -4 9 2 20 11 20 30 28 30 12z m-13100
-63 c0 -6 -4 -7 -10 -4 -5 3 -10 11 -10 16 0 6 5 7 10 4 6 -3 10 -11 10 -16z
m13041 -12 c-16 -16 -26 0 -10 19 9 11 15 12 17 4 2 -6 -1 -17 -7 -23z m-44
-42 c-4 -8 -14 -15 -23 -15 -16 0 -16 2 1 20 20 22 31 20 22 -5z m-54 -47
c-13 -12 -25 -19 -29 -15 -10 10 16 37 34 37 13 0 12 -4 -5 -22z m-61 -46
c-13 -9 -39 -30 -58 -45 -18 -16 -39 -27 -46 -25 -6 2 4 14 23 26 20 12 44 30
54 42 10 11 25 20 34 20 12 -1 10 -5 -7 -18z m-132 -102 c-6 -11 -18 -20 -28
-20 -14 1 -13 4 7 20 29 25 34 25 21 0z m-60 -55 c-7 -8 -17 -15 -23 -15 -5 0
-2 9 8 20 21 23 35 19 15 -5z m-46 -50 c-6 -16 -24 -21 -24 -7 0 11 11 22 21
22 5 0 6 -7 3 -15z m-54 -60 c-7 -9 -15 -13 -18 -10 -3 2 1 11 8 20 7 9 15 13
18 10 3 -2 -1 -11 -8 -20z m-40 -45 c0 -5 -5 -10 -11 -10 -5 0 -7 5 -4 10 3 6
8 10 11 10 2 0 4 -4 4 -10z m-70 -80 c0 -5 -5 -10 -11 -10 -5 0 -7 5 -4 10 3
6 8 10 11 10 2 0 4 -4 4 -10z m-45 -59 c-3 -6 -11 -11 -17 -11 -6 0 -6 6 2 15
14 17 26 13 15 -4z m-45 -40 c0 -5 -7 -12 -16 -15 -14 -5 -15 -4 -4 9 14 17
20 19 20 6z m-60 -56 c-7 -9 -15 -13 -17 -11 -7 7 7 26 19 26 6 0 6 -6 -2 -15z
m-45 -45 c-3 -5 -11 -10 -16 -10 -6 0 -7 5 -4 10 3 6 11 10 16 10 6 0 7 -4 4
-10z m2401 -6367 c66 -87 70 -93 136 -190 25 -38 53 -75 62 -82 9 -7 16 -17
16 -22 0 -4 17 -32 38 -61 37 -54 46 -66 92 -117 14 -16 36 -44 50 -62 41 -54
142 -172 202 -235 166 -176 212 -226 268 -294 34 -41 70 -85 81 -96 10 -12 19
-25 19 -29 0 -4 19 -30 43 -58 24 -29 58 -74 77 -100 19 -26 54 -69 78 -95 51
-56 132 -173 169 -245 45 -86 71 -154 129 -327 52 -155 56 -174 66 -317 14
-181 0 -449 -27 -523 -9 -25 -23 -74 -30 -110 -24 -106 -61 -229 -95 -315 -18
-44 -40 -102 -50 -130 -28 -80 -104 -234 -149 -305 -22 -36 -49 -81 -59 -100
-57 -106 -127 -240 -187 -355 -37 -71 -75 -141 -84 -155 -17 -25 -36 -65 -132
-265 -54 -113 -91 -188 -155 -310 -20 -38 -40 -81 -45 -95 -4 -14 -24 -63 -44
-110 -20 -47 -43 -103 -50 -125 -7 -22 -20 -56 -28 -75 -9 -19 -22 -55 -30
-80 -9 -25 -27 -74 -40 -110 -25 -63 -36 -95 -82 -230 -12 -36 -30 -87 -39
-115 -10 -27 -34 -99 -53 -160 -20 -60 -43 -128 -52 -150 -9 -21 -23 -66 -31
-99 -11 -46 -21 -64 -39 -73 -14 -6 -29 -10 -33 -7 -22 14 -2 94 56 234 25 60
63 168 76 215 4 17 17 57 28 90 53 157 64 193 72 230 5 22 25 83 44 135 19 52
40 111 47 130 19 57 40 112 61 165 11 28 30 77 43 110 12 33 30 78 40 100 9
22 29 67 43 100 13 33 42 94 62 135 71 141 230 455 243 480 14 26 18 33 90
170 24 47 56 108 72 135 15 28 34 64 42 80 9 17 21 39 26 50 143 271 237 461
237 476 0 5 10 29 22 52 12 23 25 58 29 77 4 19 16 62 28 95 62 181 102 422
101 615 0 110 -32 320 -59 390 -11 30 -21 61 -21 68 0 24 -56 147 -151 333
-10 19 -25 41 -33 49 -9 7 -16 17 -16 22 0 6 -11 24 -25 42 -54 66 -132 167
-175 227 -25 35 -58 80 -75 100 -16 20 -41 52 -55 70 -63 82 -181 217 -270
308 -71 72 -301 357 -356 440 -40 60 -45 69 -78 126 -16 28 -34 55 -40 60 -12
10 -71 104 -137 218 -31 53 -39 77 -25 77 2 0 30 -35 62 -77z m-8099 -1575
c-2 -13 -4 -5 -4 17 -1 22 1 32 4 23 2 -10 2 -28 0 -40z m50 -290 c-3 -7 -5
-2 -5 12 0 14 2 19 5 13 2 -7 2 -19 0 -25z m6690 -1943 c0 -311 -3 -416 -8
-325 -9 184 -8 898 1 835 5 -27 8 -257 7 -510z m-8335 -697 c-7 -7 -12 -8 -12
-2 0 14 12 26 19 19 2 -3 -1 -11 -7 -17z m3224 -149 c71 -67 129 -132 314
-354 101 -121 186 -222 190 -225 3 -3 39 -43 80 -90 87 -101 136 -155 170
-189 14 -15 50 -55 80 -91 30 -36 86 -99 123 -140 38 -41 72 -82 76 -90 3 -8
24 -42 46 -74 66 -97 73 -109 99 -157 13 -25 32 -51 40 -58 9 -8 16 -18 16
-24 0 -6 6 -18 14 -26 45 -51 177 -357 190 -441 4 -25 15 -74 26 -110 11 -36
27 -119 36 -185 17 -121 27 -247 18 -210 -7 27 -17 57 -47 135 -14 36 -29 88
-33 115 -20 142 -125 353 -310 620 -8 11 -29 43 -48 70 -19 28 -66 95 -105
150 -39 55 -88 125 -108 155 -21 30 -43 62 -50 70 -45 57 -83 112 -83 120 0 5
-6 13 -13 17 -18 11 -187 221 -187 233 0 5 -6 13 -13 17 -8 4 -35 39 -61 78
-26 38 -51 72 -54 75 -4 3 -34 46 -67 95 -59 90 -77 113 -223 296 -42 53 -95
122 -117 153 -22 31 -43 56 -47 56 -4 0 -8 6 -8 13 0 8 -11 24 -25 37 -14 13
-25 29 -25 36 0 6 -7 14 -15 18 -8 3 -15 12 -15 21 0 10 18 -3 49 -32 26 -27
66 -64 87 -84z m-3252 109 c-5 -7 -27 -41 -51 -76 -24 -35 -43 -65 -43 -68 0
-8 -103 -148 -150 -204 -26 -30 -72 -89 -103 -130 -31 -41 -62 -82 -70 -90 -7
-8 -34 -46 -60 -85 -26 -38 -70 -99 -98 -135 -28 -36 -61 -81 -74 -100 -40
-59 -152 -204 -174 -226 -12 -12 -21 -24 -21 -28 0 -4 -22 -36 -50 -71 -27
-35 -50 -68 -50 -73 0 -5 -11 -19 -25 -32 -14 -13 -25 -27 -25 -31 0 -14 -194
-282 -237 -327 -7 -7 -13 -18 -13 -23 0 -6 -11 -25 -25 -43 -14 -18 -25 -35
-25 -38 0 -3 -20 -35 -44 -72 -24 -37 -58 -97 -76 -134 -18 -37 -41 -83 -50
-102 -88 -176 -149 -444 -151 -660 0 -62 -3 -88 -9 -75 -17 39 -11 265 10 390
59 351 95 470 207 700 44 92 126 239 146 264 6 7 16 21 22 31 31 53 70 106 81
113 8 4 14 14 14 21 0 8 11 21 25 30 14 9 25 23 25 31 0 8 4 15 9 15 4 0 59
62 122 137 63 76 125 150 139 165 14 14 41 45 60 68 19 23 43 51 53 63 10 12
31 37 45 56 15 19 40 48 55 65 46 52 173 199 199 231 9 11 40 49 69 85 29 36
64 77 78 91 47 46 125 133 186 206 33 40 66 73 73 73 8 0 10 -5 6 -12z m4732
-3101 c-4 -24 -14 -53 -22 -63 -14 -18 -15 -17 -9 11 22 105 44 143 31 52z
m-6309 1 c-3 -8 -6 -5 -6 6 -1 11 2 17 5 13 3 -3 4 -12 1 -19z m85 -228 c11
-25 31 -72 43 -105 13 -33 38 -96 55 -140 18 -44 39 -98 47 -119 8 -22 23 -59
34 -82 10 -24 19 -48 19 -53 0 -6 11 -39 24 -73 32 -85 64 -192 80 -264 7 -32
20 -79 29 -104 21 -63 62 -240 93 -405 27 -138 27 -145 26 -568 0 -266 -5
-456 -12 -500 -28 -177 -59 -313 -115 -502 -13 -44 -36 -123 -50 -175 -15 -52
-31 -108 -37 -125 -33 -99 -58 -164 -72 -190 -9 -16 -16 -36 -16 -43 0 -8 -6
-26 -14 -40 -8 -15 -31 -63 -51 -107 -21 -44 -41 -87 -46 -95 -5 -8 -22 -40
-37 -70 -48 -92 -71 -133 -102 -180 -16 -25 -35 -56 -42 -70 -7 -14 -34 -53
-60 -87 -27 -34 -48 -65 -48 -67 0 -6 -106 -140 -168 -214 -40 -47 -58 -67
-138 -154 -54 -58 -195 -178 -308 -263 -37 -27 -72 -55 -79 -60 -99 -84 -415
-255 -522 -282 -11 -3 -39 -13 -62 -24 -23 -10 -59 -23 -80 -28 -21 -4 -72
-18 -113 -29 -208 -57 -417 -92 -540 -91 -36 0 -60 2 -55 4 6 2 60 18 120 35
120 35 250 79 305 103 19 9 67 28 105 43 39 16 87 38 107 51 21 13 40 23 42
23 9 0 131 84 134 92 2 4 8 8 13 8 11 0 204 151 229 178 8 10 44 42 80 72 35
30 89 80 120 110 55 55 410 475 410 485 0 3 18 31 41 63 22 31 60 87 84 123
24 36 51 71 59 78 9 8 16 17 16 22 0 5 19 37 43 70 50 73 45 64 107 167 27 46
50 86 50 89 0 3 10 19 23 36 12 18 30 48 39 67 10 19 21 42 26 50 42 72 133
251 238 465 13 28 24 54 24 59 0 4 10 29 23 55 13 25 27 59 31 75 4 15 15 47
25 70 10 22 25 68 34 101 8 33 20 74 25 90 10 28 29 105 52 200 5 22 14 79 20
127 6 47 16 104 24 125 7 21 19 124 26 228 10 161 10 214 -3 345 -8 85 -22
181 -31 213 -9 32 -21 86 -25 120 -19 141 -107 443 -177 608 -13 31 -24 61
-24 67 0 6 -11 32 -25 58 -14 26 -25 54 -25 64 0 9 -9 34 -19 56 -11 22 -23
54 -26 70 -4 16 -16 48 -26 70 -11 23 -23 66 -26 95 -6 51 -5 53 12 39 10 -8
27 -35 37 -60z m6175 17 c-9 -69 -91 -318 -130 -394 -9 -18 -17 -40 -17 -50 0
-10 -11 -36 -25 -58 -13 -22 -25 -46 -25 -53 0 -7 -9 -34 -21 -59 -11 -25 -29
-75 -39 -112 -10 -36 -30 -106 -44 -156 -15 -49 -31 -112 -36 -140 -5 -27 -20
-102 -32 -165 -21 -105 -23 -143 -23 -420 0 -324 9 -411 66 -635 11 -44 24
-96 29 -115 5 -19 18 -62 29 -94 12 -33 21 -67 21 -77 0 -32 74 -216 155 -384
24 -49 57 -121 75 -160 43 -93 156 -314 223 -436 34 -63 106 -178 131 -210 12
-15 30 -39 41 -55 11 -15 43 -59 70 -96 28 -37 76 -105 107 -151 32 -45 91
-125 132 -177 41 -52 83 -106 93 -119 43 -56 190 -220 242 -270 281 -270 364
-343 461 -405 25 -16 56 -37 70 -46 39 -25 362 -180 377 -180 4 0 37 -11 73
-24 36 -14 104 -34 153 -47 48 -12 87 -26 87 -30 0 -23 -218 0 -380 40 -251
63 -414 111 -500 150 -132 58 -233 112 -330 175 -41 27 -93 61 -115 75 -132
85 -402 336 -563 522 -120 138 -242 318 -337 494 -219 408 -248 473 -329 740
-66 218 -121 488 -158 780 -33 258 -33 662 -1 845 12 69 30 177 39 240 29 198
75 401 125 550 51 153 120 338 154 415 9 22 28 66 41 98 13 31 35 83 48 115
64 154 73 166 63 79z m4293 -4577 c0 -5 -5 -10 -11 -10 -5 0 -7 5 -4 10 3 6 8
10 11 10 2 0 4 -4 4 -10z"/>
<path d="M8640 24931 c-111 -6 -315 -36 -450 -66 -187 -42 -294 -89 -360 -156
-35 -36 -40 -47 -40 -88 0 -35 8 -59 29 -92 29 -47 171 -175 239 -215 77 -47
108 -66 157 -95 80 -47 263 -134 355 -169 47 -17 105 -40 130 -51 117 -48 177
-71 205 -79 28 -8 103 -37 205 -80 57 -24 159 -59 275 -94 85 -26 130 -41 285
-95 36 -12 79 -25 95 -28 17 -3 73 -18 125 -35 52 -17 122 -32 156 -35 72 -6
70 -10 84 119 6 49 17 106 26 126 9 20 20 63 25 94 5 31 18 78 29 103 11 26
20 59 20 74 0 15 9 54 20 87 12 32 27 82 35 109 7 28 21 70 29 94 9 24 16 54
16 68 0 13 9 41 20 63 11 22 20 55 20 74 0 29 -5 37 -32 50 -17 9 -36 16 -43
16 -6 0 -38 17 -71 39 -78 51 -285 145 -399 181 -49 16 -149 40 -221 54 -122
24 -153 26 -490 30 -197 2 -411 1 -474 -3z"/>
<path d="M14475 24930 c-263 -9 -467 -53 -718 -156 -127 -53 -203 -90 -304
-151 -91 -55 -99 -74 -63 -148 11 -22 19 -50 20 -63 0 -13 11 -51 24 -85 13
-34 38 -120 56 -192 17 -71 40 -154 51 -183 10 -29 19 -63 19 -77 0 -13 9 -45
20 -71 11 -26 25 -68 31 -93 22 -102 41 -151 60 -162 24 -12 156 11 263 48 38
12 77 23 86 23 10 0 39 10 66 22 27 12 65 25 84 29 37 8 298 98 415 144 110
43 226 86 270 100 22 7 60 22 85 32 115 51 168 73 180 73 6 0 24 6 38 14 15 8
63 31 107 51 149 68 260 124 310 156 28 18 73 47 101 65 28 18 69 48 91 66 23
18 64 51 93 73 94 73 126 168 80 242 -19 32 -127 99 -205 127 -78 28 -230 66
-264 66 -19 0 -107 11 -195 24 -177 27 -477 36 -801 26z"/>
<path d="M10540 24371 c0 -31 4 -41 21 -46 20 -7 21 -10 17 -343 -4 -270 -8
-357 -23 -440 -13 -72 -15 -106 -8 -113 17 -17 141 -59 174 -59 17 0 63 -11
102 -24 202 -66 212 -67 192 -8 -7 20 -20 102 -29 182 -9 80 -25 170 -36 200
-10 30 -19 63 -20 72 0 10 -11 42 -25 72 -14 30 -25 62 -25 71 0 9 -11 33 -25
53 -14 20 -25 43 -25 51 0 8 -6 22 -14 30 -15 17 -55 85 -80 136 -25 52 -69
95 -111 109 -33 12 -42 21 -53 55 -17 52 -32 53 -32 2z"/>
<path d="M13069 24273 c-25 -27 -57 -66 -70 -88 -14 -22 -37 -58 -51 -80 -84
-134 -169 -429 -189 -656 -5 -59 -13 -119 -18 -132 -21 -53 7 -51 230 23 31
11 87 22 125 26 105 11 114 24 114 167 0 71 -8 154 -20 223 -14 72 -22 171
-26 294 -6 238 -10 270 -32 270 -10 0 -38 -21 -63 -47z"/>
<path d="M13236 24288 c-3 -13 -6 -88 -6 -168 0 -146 18 -317 59 -555 12 -66
21 -123 21 -127 0 -14 47 -9 59 6 13 16 -8 225 -34 333 -21 88 -43 248 -54
390 -5 66 -12 126 -15 132 -11 18 -23 13 -30 -11z"/>
<path d="M13369 24235 c-4 -89 5 -215 21 -290 11 -49 31 -164 46 -255 14 -91
32 -175 40 -187 17 -28 81 -33 90 -8 15 39 -37 263 -121 525 -13 41 -29 104
-34 139 -11 65 -40 118 -42 76z"/>
<path d="M10346 24218 c-9 -12 -16 -37 -16 -55 0 -18 -9 -59 -20 -91 -22 -62
-29 -89 -83 -292 -19 -74 -38 -153 -42 -175 -3 -22 -8 -47 -11 -56 -7 -26 23
-49 65 -49 37 0 39 2 49 43 6 23 18 105 27 182 9 77 27 194 40 260 34 170 41
255 21 255 -8 0 -22 -10 -30 -22z"/>
<path d="M10487 24223 c-3 -5 -7 -30 -11 -58 -9 -65 -44 -268 -56 -321 -18
-77 -40 -257 -40 -320 0 -52 3 -65 19 -74 37 -19 47 -12 60 43 20 88 67 684
56 718 -6 19 -20 25 -28 12z"/>
<path d="M2450 23932 c0 -39 150 -203 236 -258 29 -19 55 -38 59 -44 3 -5 14
-10 24 -10 10 0 35 -13 56 -30 20 -16 63 -42 94 -56 64 -31 352 -174 504 -251
56 -29 122 -59 147 -67 84 -28 195 -68 205 -76 6 -4 60 -22 120 -40 61 -18
133 -41 160 -51 28 -10 72 -23 100 -29 27 -6 54 -15 61 -21 6 -5 40 -19 75
-30 58 -19 92 -34 264 -114 28 -13 66 -30 85 -39 19 -9 42 -20 50 -25 8 -6 62
-38 120 -73 214 -127 355 -257 477 -435 12 -18 64 -81 114 -140 114 -134 106
-125 182 -200 165 -163 294 -295 317 -322 14 -17 31 -38 38 -46 30 -33 141
-179 192 -251 30 -42 62 -84 71 -93 9 -9 21 -26 27 -37 6 -12 31 -31 56 -42
43 -21 75 -55 96 -103 5 -13 37 -67 70 -119 70 -111 195 -330 302 -530 171
-319 259 -443 436 -614 35 -33 89 -86 121 -116 84 -82 205 -229 229 -280 23
-48 85 -128 264 -342 108 -130 110 -133 183 -273 88 -170 112 -212 135 -243
11 -13 20 -31 20 -38 0 -8 5 -14 10 -14 15 0 12 20 -10 69 -11 24 -20 52 -20
62 0 10 -8 40 -19 66 -10 26 -21 68 -25 93 -7 52 -33 138 -89 300 -21 63 -44
133 -49 155 -6 22 -21 81 -34 130 -13 50 -24 100 -24 113 0 12 -11 50 -25 84
-14 34 -25 69 -25 77 0 18 -39 118 -76 197 -13 28 -24 55 -24 60 0 5 -11 31
-25 58 -14 27 -25 59 -25 70 0 12 -19 64 -41 116 -40 93 -57 134 -97 235 -19
46 -195 397 -238 474 -52 92 -141 216 -197 274 -52 54 -203 167 -224 167 -12
0 -137 113 -193 175 -55 60 -134 159 -155 194 -5 9 -20 31 -32 48 -13 17 -23
35 -23 40 0 5 -9 18 -19 30 -11 11 -30 39 -43 63 -44 81 -53 96 -86 143 -19
27 -44 50 -58 53 -23 6 -94 99 -94 123 0 5 -6 13 -13 19 -7 6 -30 46 -51 89
-63 130 -87 176 -110 213 -13 19 -34 53 -48 75 -13 22 -32 51 -41 65 -70 104
-87 131 -87 135 0 10 -104 151 -154 210 -69 81 -267 275 -280 275 -4 0 -14 7
-22 15 -30 29 -278 185 -295 185 -6 0 -24 7 -40 16 -54 27 -192 75 -249 84
-268 47 -330 52 -580 46 -135 -3 -303 -9 -375 -12 -239 -12 -675 42 -788 96
-23 11 -47 20 -55 20 -34 0 -353 144 -360 162 -2 5 -21 17 -42 28 -22 11 -55
31 -76 45 -37 25 -64 32 -64 17z m2405 -787 c22 -7 55 -16 73 -20 43 -9 99
-38 84 -43 -7 -2 -47 8 -89 22 -104 35 -209 43 -293 23 -74 -18 -236 -31 -205
-17 11 5 30 9 43 9 13 1 36 8 52 16 68 35 243 40 335 10z m221 -97 l19 -21
-27 18 c-29 18 -34 25 -20 25 5 0 17 -10 28 -22z m74 -59 c0 -6 -4 -7 -10 -4
-5 3 -10 11 -10 16 0 6 5 7 10 4 6 -3 10 -11 10 -16z m50 -39 c0 -5 -2 -10 -4
-10 -3 0 -8 5 -11 10 -3 6 -1 10 4 10 6 0 11 -4 11 -10z"/>
<path d="M21250 23933 c-8 -3 -44 -25 -80 -48 -56 -36 -290 -155 -306 -155 -3
0 -30 -11 -60 -25 -30 -14 -58 -25 -62 -25 -3 0 -36 -11 -72 -24 -102 -38
-278 -62 -582 -82 -53 -3 -231 0 -395 6 -326 13 -434 8 -663 -30 -97 -16 -163
-34 -233 -63 -193 -78 -280 -130 -499 -300 -37 -28 -79 -56 -95 -62 -79 -28
-155 -101 -243 -231 -8 -12 -33 -48 -55 -80 -22 -33 -42 -63 -45 -69 -3 -5
-45 -71 -95 -145 -49 -74 -95 -146 -101 -160 -6 -14 -42 -79 -79 -145 -38 -66
-106 -194 -153 -285 -46 -91 -90 -172 -98 -181 -8 -8 -14 -19 -14 -23 0 -8
-77 -137 -115 -194 -30 -44 -196 -215 -270 -278 -33 -28 -85 -67 -115 -86 -30
-20 -78 -55 -107 -79 -86 -73 -219 -245 -292 -380 -13 -24 -32 -56 -42 -71
-11 -14 -19 -31 -19 -36 0 -6 -20 -52 -44 -104 -69 -147 -104 -231 -111 -262
-3 -16 -21 -60 -40 -98 -19 -38 -51 -119 -71 -181 -20 -61 -57 -157 -84 -212
-26 -55 -53 -122 -60 -150 -7 -27 -30 -94 -52 -148 -21 -53 -38 -107 -38 -120
0 -19 -26 -123 -59 -242 -5 -16 -25 -75 -45 -129 -46 -126 -66 -210 -73 -313
-6 -87 5 -111 26 -52 12 35 50 98 99 164 18 24 53 75 79 112 25 37 62 86 82
109 20 22 48 56 63 75 15 18 55 68 88 109 33 41 73 98 88 126 67 126 171 244
362 414 85 75 227 234 241 269 5 13 18 35 28 50 21 30 141 244 208 371 24 47
51 92 59 101 8 8 14 19 14 24 0 5 6 16 14 24 8 9 25 36 38 61 34 63 56 100
129 220 35 58 70 116 77 130 24 45 47 84 67 115 11 17 25 37 30 46 6 9 22 34
37 55 84 121 108 156 108 160 0 8 102 138 129 165 14 14 58 60 96 103 167 186
268 285 322 317 76 45 258 221 294 285 49 85 200 254 290 324 90 70 102 78
168 110 43 21 55 29 126 77 17 11 68 37 115 57 47 21 103 46 125 56 22 10 66
30 97 44 31 14 63 26 70 26 7 0 35 11 63 24 47 23 244 91 345 120 25 7 64 23
87 34 23 12 50 22 60 22 10 0 29 6 43 13 14 7 52 21 85 31 52 16 130 52 290
134 22 12 112 55 200 97 88 43 167 81 175 86 8 5 30 16 49 24 90 40 379 257
420 314 35 49 26 80 -19 64z m-2353 -789 c-3 -3 -12 -4 -19 -1 -8 3 -5 6 6 6
11 1 17 -2 13 -5z m351 -31 c-10 -2 -26 -2 -35 0 -10 3 -2 5 17 5 19 0 27 -2
18 -5z m-553 -62 c-3 -6 -11 -11 -17 -11 -6 0 -6 6 2 15 14 17 26 13 15 -4z
m-135 -111 c0 -5 -5 -10 -11 -10 -5 0 -7 5 -4 10 3 6 8 10 11 10 2 0 4 -4 4
-10z m-115 -139 c-3 -6 -11 -11 -17 -11 -6 0 -6 6 2 15 14 17 26 13 15 -4z
m-35 -50 c0 -6 -4 -13 -10 -16 -5 -3 -10 1 -10 9 0 9 5 16 10 16 6 0 10 -4 10
-9z m-120 -141 c0 -5 -5 -10 -11 -10 -5 0 -7 5 -4 10 3 6 8 10 11 10 2 0 4 -4
4 -10z m-2110 -2963 c0 -27 -25 -65 -36 -54 -7 7 20 77 31 77 3 0 5 -10 5 -23z"/>
<path d="M2720 23557 c0 -56 219 -305 425 -486 119 -103 259 -167 415 -191 80
-12 263 -66 322 -96 15 -8 37 -14 50 -14 42 0 383 -102 441 -132 10 -5 44 -16
75 -24 31 -8 75 -22 97 -31 56 -23 369 -178 430 -213 28 -16 60 -33 73 -39 13
-6 52 -31 87 -56 76 -53 95 -56 95 -17 0 34 -8 44 -85 112 -33 29 -96 87 -140
129 -111 106 -157 136 -345 227 -63 31 -126 62 -140 70 -14 9 -41 22 -60 30
-19 9 -48 22 -65 30 -36 16 -218 74 -233 74 -6 0 -58 20 -116 45 -58 25 -124
49 -147 54 -23 5 -54 18 -68 28 -14 11 -51 25 -83 32 -31 6 -94 28 -140 47
-45 20 -90 38 -98 41 -18 6 -69 30 -90 42 -8 5 -44 21 -80 36 -71 30 -107 47
-160 78 -64 37 -158 87 -210 112 -52 24 -109 57 -171 98 -65 43 -79 46 -79 14z"/>
<path d="M20932 23534 c-29 -19 -72 -44 -95 -54 -23 -11 -67 -34 -97 -51 -66
-37 -119 -65 -220 -113 -177 -83 -273 -127 -318 -145 -26 -10 -87 -35 -135
-55 -48 -20 -94 -36 -102 -36 -8 0 -70 -27 -138 -59 -129 -62 -205 -91 -236
-91 -10 0 -49 -11 -85 -25 -37 -14 -74 -25 -82 -25 -32 0 -289 -120 -429 -200
-38 -22 -80 -45 -93 -50 -42 -18 -156 -116 -246 -211 -118 -125 -142 -157
-128 -171 7 -7 29 1 74 28 34 22 74 45 88 51 25 13 41 22 91 55 45 30 369 188
385 188 9 0 145 55 211 85 17 8 37 15 43 15 7 0 38 9 69 19 138 47 219 71 261
76 25 4 70 17 100 30 75 32 211 72 290 85 126 20 215 44 252 67 21 13 41 23
46 23 7 0 107 72 172 123 8 7 28 21 45 31 64 42 214 203 267 287 9 14 35 47
57 73 73 84 46 113 -47 50z"/>
<path d="M13536 23389 c-33 -39 -35 -102 -6 -220 11 -46 22 -110 25 -143 3
-34 11 -96 17 -139 15 -98 27 -108 142 -110 88 -2 88 -2 67 58 -6 17 -22 75
-36 130 -14 55 -35 127 -46 160 -11 33 -37 107 -57 165 -49 146 -59 155 -106
99z"/>
<path d="M10115 23353 c-15 -32 -31 -71 -35 -88 -48 -177 -62 -226 -76 -265
-8 -25 -20 -79 -24 -120 -5 -41 -10 -84 -12 -95 -3 -19 2 -20 87 -16 109 4
125 14 125 79 0 24 11 99 24 166 14 66 28 173 32 237 6 110 5 118 -15 138 -12
12 -34 21 -50 21 -26 0 -33 -7 -56 -57z"/>
<path d="M10335 23338 c-2 -7 -8 -60 -14 -118 -6 -58 -22 -150 -35 -205 -14
-55 -28 -128 -32 -162 -5 -53 -4 -64 10 -69 21 -8 103 16 120 36 14 16 41 219
52 397 5 76 4 106 -6 118 -15 18 -89 20 -95 3z"/>
<path d="M13338 23329 c-23 -13 -24 -110 -4 -201 8 -35 20 -111 27 -169 l11
-106 35 -17 c20 -9 44 -14 59 -10 24 6 24 8 18 73 -3 36 -15 107 -26 156 -11
50 -27 124 -35 165 -21 108 -42 135 -85 109z"/>
<path d="M10526 23238 c-8 -51 -25 -212 -33 -319 -3 -46 -1 -79 5 -83 5 -3 65
1 133 10 68 8 156 19 194 23 76 9 192 38 213 54 18 14 16 178 -3 223 -17 41
-46 55 -160 79 -44 9 -109 25 -144 35 -36 12 -92 20 -131 20 l-67 0 -7 -42z"/>
<path d="M13050 23264 c-19 -8 -78 -26 -130 -40 -123 -31 -198 -62 -204 -83
-13 -42 -16 -90 -8 -136 8 -55 24 -68 104 -84 24 -5 88 -18 143 -29 148 -31
294 -47 307 -34 16 16 -16 292 -48 405 -4 14 -17 17 -67 17 -34 -1 -78 -8 -97
-16z"/>
<path d="M11113 23132 c-11 -12 -14 -27 -9 -66 9 -68 25 -116 39 -116 108 -1
467 77 467 101 0 14 -17 19 -87 29 -70 9 -274 43 -351 59 -34 7 -46 5 -59 -7z"/>
<path d="M12480 23109 c-47 -10 -119 -23 -160 -29 -98 -14 -110 -18 -89 -31
26 -14 278 -77 332 -82 40 -4 50 -1 62 16 17 24 20 84 5 121 -12 32 -30 32
-150 5z"/>
<path d="M12721 22836 c-27 -33 -34 -165 -34 -701 0 -619 21 -1219 52 -1470
10 -88 22 -214 26 -280 3 -66 15 -187 25 -270 11 -82 24 -204 29 -270 6 -66
17 -154 25 -195 8 -41 17 -115 21 -165 10 -139 52 -471 70 -555 9 -41 20 -124
25 -185 5 -60 18 -155 30 -210 11 -55 31 -172 45 -260 14 -88 37 -205 50 -260
31 -129 64 -291 76 -380 6 -38 19 -104 29 -145 10 -41 21 -106 24 -145 4 -38
24 -141 46 -227 22 -86 44 -194 50 -240 5 -46 17 -105 25 -133 8 -27 20 -79
25 -115 5 -36 18 -101 29 -145 11 -44 31 -136 46 -205 14 -69 35 -159 46 -200
11 -41 22 -90 26 -108 3 -19 12 -36 19 -39 12 -4 92 36 126 64 16 14 132 77
198 108 19 9 42 21 50 26 8 5 31 16 50 25 19 9 58 27 85 40 28 13 54 24 58 24
4 0 26 9 50 19 23 11 80 36 127 55 l85 35 0 58 c-1 87 -45 281 -123 543 -35
116 -62 224 -68 270 -5 45 -38 202 -74 355 -10 44 -21 103 -25 130 -6 49 -32
165 -81 370 -13 56 -24 112 -24 125 0 14 -9 60 -20 104 -11 43 -26 121 -34
175 -14 91 -36 187 -70 311 -8 30 -18 93 -22 140 -3 47 -14 122 -25 168 -10
46 -23 123 -29 171 -15 131 -48 315 -75 416 -25 94 -58 274 -74 410 -6 44 -17
114 -26 155 -9 41 -20 141 -25 221 -5 80 -18 190 -29 245 -11 54 -31 194 -46
309 -14 116 -34 266 -45 335 -10 69 -22 163 -25 210 -4 47 -15 150 -26 230
-10 80 -23 202 -29 272 -6 69 -17 161 -25 203 -8 42 -18 120 -21 173 -13 217
-22 285 -43 305 -19 20 -55 28 -201 47 -41 6 -113 19 -160 29 -157 36 -179 39
-189 27z"/>
<path d="M10910 22805 c-47 -12 -146 -30 -220 -40 -193 -25 -210 -30 -210 -63
0 -15 -11 -97 -24 -182 -44 -283 -75 -551 -76 -653 0 -31 -9 -90 -20 -130 -11
-39 -25 -124 -30 -188 -5 -64 -16 -161 -24 -215 -9 -55 -18 -137 -22 -184 -3
-47 -14 -135 -25 -197 -10 -61 -21 -142 -24 -180 -4 -37 -17 -129 -30 -203
-30 -174 -63 -424 -75 -570 -6 -63 -19 -146 -30 -185 -11 -38 -20 -83 -20 -99
0 -16 -9 -62 -20 -100 -10 -39 -24 -116 -29 -172 -6 -55 -17 -129 -25 -165 -9
-36 -20 -119 -26 -184 -6 -73 -25 -178 -50 -277 -22 -87 -42 -191 -45 -231 -7
-79 -42 -259 -81 -404 -13 -51 -24 -103 -24 -116 0 -12 -9 -49 -20 -80 -11
-32 -23 -86 -26 -120 -3 -34 -16 -102 -29 -152 -46 -175 -75 -310 -75 -344 0
-40 -43 -235 -76 -346 -13 -44 -24 -89 -24 -100 0 -11 -11 -55 -25 -98 -14
-43 -25 -92 -25 -109 0 -28 -37 -198 -63 -291 -21 -75 9 -101 213 -188 41 -17
104 -45 140 -61 36 -17 81 -37 100 -45 64 -29 164 -80 245 -127 92 -53 116
-56 140 -20 23 36 63 175 75 261 5 39 18 98 30 129 11 32 20 70 20 84 0 14 11
68 24 120 13 52 27 118 30 146 4 29 15 85 26 125 11 41 20 88 20 104 0 17 11
74 25 128 14 54 25 112 25 131 0 18 9 68 21 112 11 43 24 118 29 167 5 48 17
120 28 160 11 39 32 140 47 222 15 83 38 191 51 241 13 51 24 116 24 145 0 30
7 95 15 144 15 87 24 144 46 310 6 44 17 105 25 135 8 30 14 74 14 99 0 25 11
117 24 205 54 359 68 467 76 586 5 69 18 169 29 224 12 54 21 131 21 171 0 90
15 289 34 460 47 406 68 944 64 1630 -2 433 -6 565 -16 583 -16 27 -39 27
-152 -3z"/>
<path d="M13384 22706 c-4 -9 1 -68 10 -130 9 -62 16 -134 16 -159 0 -26 11
-104 24 -174 13 -71 29 -177 35 -238 19 -177 40 -332 62 -450 10 -60 23 -175
28 -255 5 -80 18 -190 29 -245 11 -55 32 -181 47 -280 14 -99 37 -227 50 -285
48 -209 64 -297 74 -405 6 -60 17 -135 26 -165 8 -30 20 -95 25 -145 6 -49 19
-137 30 -195 28 -149 59 -345 65 -415 4 -33 17 -112 30 -175 13 -63 28 -146
35 -185 14 -87 34 -182 65 -305 13 -52 28 -122 34 -155 15 -90 50 -251 72
-330 10 -38 19 -82 19 -96 0 -15 10 -58 21 -95 12 -38 28 -98 34 -134 7 -36
25 -105 39 -155 14 -49 33 -121 41 -160 34 -160 69 -305 91 -386 13 -47 24
-99 24 -116 0 -16 9 -65 21 -109 27 -105 48 -194 63 -279 l13 -70 37 2 c20 1
69 13 109 27 39 13 91 30 115 37 l42 12 0 62 c0 36 -8 86 -20 120 -11 33 -25
97 -30 145 -5 47 -16 108 -25 136 -16 54 -47 198 -70 329 -8 44 -30 157 -50
250 -19 94 -42 208 -49 255 -8 47 -23 123 -34 170 -11 47 -28 123 -36 170 -9
47 -25 128 -36 180 -12 52 -28 131 -36 175 -8 44 -25 127 -39 185 -24 106 -48
220 -70 340 -7 36 -29 128 -49 205 -19 77 -40 174 -46 215 -5 41 -18 113 -29
160 -11 47 -29 130 -41 185 -12 55 -33 150 -46 210 -14 61 -31 146 -39 190
-14 77 -37 178 -75 335 -10 41 -21 95 -25 120 -4 25 -18 88 -31 140 -13 52
-24 103 -24 113 0 10 -23 114 -51 231 -27 116 -61 261 -75 321 -35 154 -72
299 -95 370 -10 33 -32 137 -49 230 -17 94 -37 190 -45 215 -16 52 -22 94 -35
246 -9 115 -31 188 -59 203 -9 5 -37 12 -63 16 -40 6 -49 4 -54 -9z"/>
<path d="M10264 22686 c-39 -17 -59 -71 -74 -195 -6 -47 -20 -131 -31 -185
-12 -55 -25 -140 -29 -190 -5 -50 -16 -111 -25 -136 -9 -25 -21 -72 -26 -105
-10 -60 -32 -145 -69 -262 -11 -35 -23 -96 -26 -135 -6 -72 -33 -188 -80 -344
-13 -44 -24 -93 -24 -110 0 -16 -11 -72 -25 -124 -14 -52 -25 -105 -25 -118 0
-24 -34 -152 -76 -284 -13 -43 -24 -92 -24 -109 0 -18 -11 -75 -24 -128 -41
-165 -74 -320 -101 -476 -14 -82 -34 -189 -45 -237 -11 -48 -24 -117 -29 -155
-5 -37 -19 -94 -30 -125 -12 -32 -21 -70 -21 -85 0 -41 -49 -297 -76 -399 -13
-49 -24 -101 -24 -115 0 -13 -9 -56 -20 -94 -11 -39 -23 -101 -26 -140 -4 -38
-17 -115 -30 -170 -13 -55 -24 -114 -24 -132 0 -18 -11 -72 -24 -120 -31 -116
-65 -265 -76 -333 -4 -30 -17 -89 -28 -130 -32 -119 -62 -260 -68 -320 -3 -30
-15 -93 -25 -139 -11 -46 -24 -112 -28 -145 -8 -58 -30 -154 -72 -311 -11 -38
-19 -78 -19 -87 0 -24 73 -64 161 -89 129 -35 144 -38 160 -33 21 6 46 93 60
205 6 46 21 131 34 189 13 58 26 123 29 145 3 22 14 69 25 105 19 64 44 187
63 305 5 33 20 94 33 135 14 42 25 87 25 102 0 14 11 65 25 112 14 47 25 97
25 111 0 13 11 59 25 102 14 43 25 87 25 98 0 11 11 67 25 125 50 217 67 297
75 371 5 42 17 96 28 120 22 50 72 251 72 289 0 14 10 61 21 105 11 44 25 129
30 188 5 60 18 148 28 195 11 48 22 116 25 152 4 36 15 101 26 145 11 44 20
109 20 145 0 61 14 171 40 305 6 33 22 116 36 185 13 69 24 143 24 165 0 22
10 81 21 130 11 50 24 133 30 185 5 52 18 145 28 205 32 183 63 423 71 550 10
152 17 213 35 300 30 140 65 382 65 442 0 73 16 197 36 273 22 85 21 90 -28
90 -24 -1 -57 -7 -74 -14z"/>
<path d="M9998 22671 c-26 -4 -56 -15 -67 -25 -22 -20 -51 -96 -51 -133 0 -13
-11 -70 -24 -126 -13 -56 -29 -122 -34 -147 -18 -79 -43 -173 -68 -252 -13
-43 -24 -92 -24 -109 0 -17 -11 -72 -24 -123 -13 -50 -36 -147 -51 -216 -15
-69 -35 -156 -45 -195 -11 -38 -22 -88 -25 -110 -10 -66 -55 -255 -80 -335
-13 -41 -26 -100 -29 -130 -7 -59 -38 -213 -61 -295 -8 -27 -19 -79 -25 -115
-7 -36 -23 -108 -36 -161 -13 -53 -24 -109 -24 -125 0 -28 -35 -205 -67 -334
-36 -149 -53 -230 -68 -325 -9 -55 -23 -122 -31 -150 -8 -27 -20 -81 -25 -120
-6 -38 -21 -119 -34 -180 -13 -60 -36 -177 -50 -260 -15 -82 -38 -196 -51
-252 -13 -56 -24 -113 -24 -127 0 -14 -9 -62 -20 -108 -11 -46 -22 -112 -26
-148 -3 -36 -16 -114 -29 -175 -13 -60 -36 -180 -51 -265 -14 -85 -34 -187
-44 -225 -10 -39 -23 -119 -29 -179 -8 -78 -17 -118 -32 -142 -18 -30 -21 -50
-21 -172 0 -153 13 -244 44 -303 18 -35 24 -40 51 -37 35 3 42 20 57 133 5 39
18 99 29 135 10 36 26 101 35 145 8 44 20 98 25 120 51 215 61 265 61 295 0
19 9 69 20 110 11 41 25 102 30 135 5 33 16 85 25 115 9 30 20 84 25 120 5 36
16 90 25 120 8 30 20 84 25 120 5 36 18 98 30 137 11 40 20 85 20 100 0 15 11
63 24 107 13 45 27 108 30 141 4 33 15 96 25 140 11 44 25 114 32 155 7 41 16
86 21 99 5 14 13 57 18 97 5 39 16 91 25 115 9 24 20 89 26 144 5 55 19 142
29 194 11 52 20 107 20 123 0 16 11 63 24 106 30 96 76 290 76 319 0 12 9 50
20 85 11 34 25 93 30 130 5 37 19 93 29 125 11 32 22 84 26 117 4 32 13 79 21
105 7 26 18 77 23 115 5 37 19 91 29 119 18 47 40 124 62 217 5 19 18 76 30
125 12 50 26 119 31 153 5 35 17 94 28 130 30 107 69 282 75 342 3 30 14 89
25 130 10 41 22 99 25 128 4 29 16 81 26 115 11 34 20 80 20 102 1 40 22 144
34 163 4 6 11 46 16 88 8 60 7 80 -3 86 -14 9 -60 8 -129 -1z"/>
<path d="M13625 22670 c-8 -12 2 -95 17 -154 5 -22 15 -76 22 -120 7 -45 22
-119 34 -166 20 -84 32 -139 53 -255 6 -33 21 -107 34 -165 14 -58 27 -125 31
-150 3 -25 14 -72 24 -105 9 -33 32 -123 49 -200 18 -77 37 -154 42 -171 8
-28 45 -193 84 -384 8 -36 21 -99 30 -140 9 -41 28 -129 42 -195 14 -66 34
-149 44 -185 10 -36 21 -85 25 -110 3 -25 15 -81 27 -125 11 -44 26 -109 33
-145 7 -36 29 -123 49 -195 20 -71 41 -157 47 -190 5 -33 21 -130 34 -215 14
-85 32 -179 41 -208 8 -29 21 -90 28 -135 7 -45 20 -109 29 -142 17 -66 51
-238 72 -355 7 -41 19 -102 27 -135 8 -33 29 -139 46 -235 18 -96 39 -197 46
-225 8 -27 19 -81 25 -120 12 -77 45 -224 66 -296 7 -26 21 -91 29 -145 15
-94 33 -168 76 -313 10 -35 24 -94 30 -130 15 -88 57 -240 75 -268 17 -27 50
-30 62 -5 5 9 12 38 15 64 4 26 16 74 27 107 26 79 26 160 -1 213 -15 30 -23
71 -29 157 -5 64 -14 129 -20 146 -11 30 -39 154 -65 295 -8 41 -22 116 -31
165 -9 50 -22 124 -29 165 -7 41 -22 118 -34 170 -12 52 -31 131 -41 175 -10
44 -21 107 -25 140 -8 73 -47 273 -79 415 -14 58 -32 143 -40 190 -9 47 -25
130 -36 185 -11 55 -27 150 -36 210 -8 61 -25 155 -38 210 -13 55 -34 150 -46
210 -12 61 -35 166 -50 235 -16 69 -34 150 -40 180 -6 30 -25 118 -41 195 -17
77 -36 176 -44 220 -8 44 -31 139 -50 210 -20 72 -42 157 -50 190 -8 33 -19
74 -25 90 -6 16 -18 63 -26 105 -7 41 -20 98 -28 125 -13 46 -27 108 -86 375
-27 121 -43 190 -63 265 -8 33 -29 123 -47 200 -68 304 -83 362 -111 416 -15
31 -35 59 -44 63 -27 10 -153 7 -160 -4z"/>
<path d="M16506 19633 c-47 -25 -107 -93 -183 -209 -40 -60 -83 -123 -95 -141
-13 -17 -45 -64 -73 -103 -27 -39 -81 -111 -120 -159 -38 -48 -83 -107 -100
-130 -16 -23 -40 -53 -51 -67 -12 -15 -39 -61 -60 -103 -21 -42 -51 -98 -67
-126 -50 -84 -75 -133 -88 -173 -6 -20 -23 -53 -35 -72 -13 -19 -24 -42 -24
-52 0 -10 -11 -41 -24 -70 -13 -29 -36 -93 -52 -143 -16 -49 -39 -111 -51
-137 -13 -27 -23 -55 -23 -63 0 -14 -36 -113 -68 -185 -16 -39 -50 -189 -59
-262 -4 -32 -2 -48 6 -48 6 0 11 6 11 14 0 8 10 27 23 43 34 41 73 111 95 173
57 153 74 198 87 227 8 17 15 34 15 37 0 3 32 72 71 153 39 82 81 171 94 198
49 107 116 243 153 310 45 83 62 110 122 200 8 13 30 47 48 76 18 30 37 61 42
69 5 8 47 78 93 155 46 77 100 165 119 195 19 30 65 115 102 189 36 74 72 142
79 150 15 18 49 72 45 70 -2 -1 -16 -8 -32 -16z"/>
<path d="M7235 19619 c4 -12 16 -30 26 -40 10 -10 19 -24 19 -29 0 -6 11 -27
23 -48 13 -20 36 -67 51 -104 14 -37 63 -119 109 -181 45 -63 100 -145 122
-181 22 -37 50 -83 63 -102 12 -19 22 -37 22 -39 0 -2 30 -52 67 -112 37 -59
86 -142 110 -183 49 -84 312 -613 363 -730 18 -41 41 -93 51 -116 11 -22 19
-46 19 -53 0 -7 11 -34 24 -60 13 -25 39 -80 57 -122 35 -81 73 -138 85 -126
12 12 -53 266 -95 375 -12 29 -21 61 -21 72 0 11 -11 38 -25 60 -14 22 -25 44
-25 48 0 5 -8 24 -17 43 -9 18 -22 56 -29 84 -49 190 -84 269 -204 455 -16 25
-34 56 -40 70 -5 14 -16 36 -25 50 -8 14 -24 44 -35 68 -28 60 -103 176 -161
247 -66 80 -60 72 -104 140 -46 70 -85 123 -139 185 -21 25 -49 66 -62 92 -41
80 -199 258 -229 258 -4 0 -3 -9 0 -21z"/>
<path d="M15630 18555 c0 -8 5 -15 10 -15 6 0 10 7 10 15 0 8 -4 15 -10 15 -5
0 -10 -7 -10 -15z"/>
<path d="M8486 16531 c-16 -18 -16 -21 13 -54 17 -19 31 -38 31 -43 0 -4 14
-22 31 -40 22 -23 38 -56 55 -116 12 -45 32 -108 43 -138 17 -49 23 -55 51
-58 l32 -3 -7 58 c-3 32 -12 74 -20 93 -7 19 -18 49 -25 66 -6 17 -31 52 -55
77 -31 34 -45 58 -50 89 -8 46 -38 88 -65 88 -9 0 -25 -9 -34 -19z"/>
<path d="M15210 16531 c-25 -7 -50 -42 -50 -72 0 -49 86 -45 103 4 11 33 2 77
-16 76 -6 -1 -23 -4 -37 -8z"/>
<path d="M8927 16419 c-42 -25 -51 -65 -51 -249 0 -168 1 -178 27 -241 15 -36
27 -75 27 -86 0 -12 9 -50 20 -85 11 -34 27 -95 35 -135 9 -39 22 -89 29 -110
l13 -38 26 55 c54 117 69 166 77 254 5 50 16 111 26 136 9 25 22 81 30 125 8
44 21 100 29 125 25 82 34 144 22 158 -13 16 -70 42 -117 52 -32 8 -107 28
-155 43 -11 3 -28 2 -38 -4z"/>
<path d="M14738 16395 c-121 -37 -198 -75 -198 -96 0 -38 24 -166 42 -229 11
-36 23 -102 28 -146 5 -45 17 -111 28 -145 11 -35 27 -104 37 -154 21 -105 39
-147 60 -139 8 3 17 22 20 42 6 34 15 66 43 147 30 88 86 304 102 396 12 67
-2 194 -33 299 -16 55 -26 57 -129 25z"/>
<path d="M15111 16381 c-6 -10 -15 -40 -21 -67 -6 -26 -24 -81 -41 -122 -32
-81 -37 -123 -14 -142 19 -16 31 -7 39 32 3 18 21 47 39 66 30 31 32 40 38
120 4 48 5 97 2 110 -6 27 -29 29 -42 3z"/>
<path d="M9364 16233 c-3 -16 -10 -41 -14 -58 -5 -16 -13 -62 -19 -101 -6 -39
-17 -89 -26 -113 -8 -23 -17 -65 -21 -94 -3 -29 -17 -90 -30 -137 -65 -228
-74 -264 -74 -280 0 -10 -12 -44 -27 -76 -27 -58 -28 -63 -27 -234 1 -169 2
-178 28 -227 14 -29 26 -63 26 -75 0 -13 11 -63 24 -113 37 -141 76 -318 76
-344 0 -14 11 -86 25 -160 40 -219 73 -429 84 -534 6 -54 17 -126 25 -160 28
-125 47 -311 40 -391 -8 -88 -19 -105 -28 -44 -10 65 -46 276 -57 333 -5 28
-16 106 -25 175 -8 69 -24 172 -34 230 -11 58 -22 134 -26 170 -5 65 -43 249
-71 347 -8 28 -20 85 -28 125 -7 40 -22 107 -34 148 -11 41 -21 87 -21 103 0
43 -31 160 -47 177 -13 13 -17 12 -34 -9 -10 -13 -19 -33 -19 -45 0 -12 -9
-46 -19 -76 -11 -30 -22 -73 -25 -95 -13 -82 -59 -272 -77 -315 -10 -25 -25
-74 -33 -110 -15 -71 -38 -165 -67 -275 -10 -38 -22 -95 -27 -125 -10 -63 -43
-195 -78 -320 -13 -47 -24 -96 -24 -109 0 -14 -12 -63 -26 -110 -81 -267 -124
-428 -124 -462 0 -15 -7 -46 -16 -70 -8 -24 -22 -71 -29 -104 -8 -33 -23 -91
-33 -130 -11 -38 -32 -122 -47 -185 -14 -63 -36 -144 -47 -180 -11 -36 -23
-85 -28 -110 -4 -25 -17 -72 -28 -105 -11 -33 -33 -114 -47 -180 -27 -120 -53
-220 -100 -389 -14 -48 -25 -99 -25 -113 0 -13 -7 -37 -15 -53 -8 -16 -21 -55
-29 -87 -8 -32 -24 -85 -34 -118 -11 -33 -35 -121 -52 -195 -18 -74 -41 -157
-51 -185 -11 -27 -19 -60 -19 -71 0 -12 -9 -41 -19 -65 -11 -25 -25 -74 -31
-111 -5 -37 -19 -95 -30 -130 -11 -35 -20 -71 -20 -82 0 -10 -20 -78 -45 -150
-24 -72 -51 -160 -59 -196 -22 -97 -62 -243 -79 -292 -8 -24 -27 -90 -42 -148
-70 -272 -114 -426 -225 -788 -27 -89 -50 -171 -50 -181 0 -21 -51 -192 -80
-266 -10 -27 -33 -99 -50 -160 -64 -223 -72 -251 -96 -303 -13 -29 -24 -61
-24 -72 0 -10 -11 -49 -24 -87 -13 -37 -47 -142 -76 -233 -45 -144 -71 -220
-144 -430 -9 -25 -27 -88 -42 -140 -43 -155 -263 -831 -289 -886 -13 -29 -27
-69 -30 -90 -8 -44 -39 -152 -95 -334 -22 -69 -44 -144 -50 -166 -13 -54 -33
-70 -68 -58 -18 6 -35 25 -49 54 -17 36 -23 41 -28 27 -9 -22 2 -82 22 -121
19 -37 12 -99 -17 -138 -15 -21 -25 -58 -35 -135 -8 -59 -12 -109 -10 -111 11
-11 35 11 65 57 26 40 40 52 67 57 31 6 74 48 108 105 6 9 28 43 50 75 21 33
44 68 50 79 13 23 34 58 80 130 18 28 43 69 56 92 23 40 75 125 113 187 33 52
74 127 122 221 25 50 58 113 74 140 15 28 58 111 95 185 36 74 71 143 76 153
12 22 20 39 53 112 15 33 34 71 42 85 28 49 134 271 134 280 0 5 11 33 24 62
13 29 36 82 52 118 15 36 49 111 76 167 26 57 48 106 48 111 0 5 11 32 25 60
14 29 25 57 25 63 0 12 34 95 76 187 13 29 24 59 24 67 0 8 12 41 26 72 84
186 113 256 123 298 4 17 18 52 29 79 12 27 22 55 22 63 0 7 11 36 25 63 14
27 25 59 25 70 0 12 11 45 24 73 13 29 27 65 31 81 3 16 15 48 26 70 10 22 19
46 19 53 0 8 11 36 25 63 14 27 25 56 25 65 0 8 11 38 25 67 14 28 25 60 25
71 0 11 11 45 23 76 34 81 67 177 83 244 8 32 21 71 29 87 8 16 15 37 15 47 0
10 11 39 25 65 14 26 25 52 25 58 0 6 11 35 23 63 25 55 60 153 81 227 14 47
31 98 72 210 13 36 24 73 24 82 0 9 11 43 24 75 13 32 33 83 46 113 12 30 25
69 29 85 4 17 18 52 29 79 12 27 22 57 22 67 0 10 11 47 24 81 13 35 36 104
51 153 15 50 35 117 46 150 11 33 24 77 30 97 5 21 17 57 28 80 18 43 49 131
75 218 16 51 38 115 72 210 13 36 24 77 24 90 0 14 12 52 25 85 14 33 25 67
25 75 0 8 9 40 21 70 11 30 26 80 33 110 7 30 20 75 29 100 9 25 25 72 37 105
12 33 28 84 36 113 7 29 21 66 29 82 8 16 15 40 15 53 0 14 11 58 24 98 13 41
27 92 31 114 4 22 15 60 26 84 10 24 19 53 19 65 0 12 9 46 20 76 21 57 40
146 60 285 10 63 18 86 40 111 15 17 30 49 33 71 4 22 16 60 27 84 11 24 20
53 20 64 0 11 11 49 24 85 13 36 30 91 37 123 7 32 16 60 20 63 4 2 11 26 14
52 4 26 16 81 27 122 12 41 24 98 28 126 4 28 17 69 29 92 12 23 21 50 21 61
0 11 8 39 19 63 10 24 26 81 35 128 10 47 21 90 26 95 5 6 13 38 19 70 5 33
17 81 25 107 9 26 21 72 27 103 6 31 19 84 30 117 10 33 19 76 19 95 0 18 11
68 24 111 22 71 43 147 68 247 5 22 20 78 33 125 13 47 31 119 40 160 9 41 21
98 27 125 6 28 20 82 31 120 11 39 22 100 24 138 l5 67 -44 20 c-24 11 -70 35
-103 54 -33 19 -71 41 -85 49 -56 32 -289 147 -297 147 -5 0 -33 11 -61 25
-29 14 -54 25 -58 25 -6 0 -107 44 -147 65 -44 23 -66 19 -73 -12z"/>
<path d="M14365 16251 c-12 -10 -123 -59 -220 -95 -38 -15 -99 -42 -135 -60
-130 -68 -276 -144 -325 -171 -27 -15 -66 -36 -85 -47 -19 -10 -38 -28 -43
-41 -12 -33 2 -161 28 -257 13 -47 35 -137 50 -200 14 -63 37 -144 50 -180 30
-83 75 -249 75 -275 0 -11 9 -52 20 -90 11 -39 27 -99 35 -135 8 -36 28 -114
45 -175 17 -60 39 -146 50 -190 10 -44 25 -105 34 -135 14 -54 46 -182 71
-290 33 -145 86 -341 121 -450 13 -42 24 -83 24 -92 0 -10 11 -46 24 -80 13
-35 32 -92 42 -128 33 -123 79 -135 88 -23 9 104 55 418 76 513 10 47 21 121
25 165 3 44 14 123 25 175 10 52 21 115 24 140 12 94 47 289 71 395 13 61 39
187 56 280 17 94 40 193 50 220 25 67 24 141 -5 250 -13 50 -36 146 -51 215
-15 69 -35 154 -45 190 -10 36 -32 126 -50 200 -17 74 -38 160 -47 190 -8 30
-21 80 -28 112 -17 77 -27 90 -50 69z"/>
<path d="M8547 16123 c-3 -5 -8 -60 -12 -123 -6 -88 -13 -127 -31 -167 -13
-28 -24 -59 -24 -68 0 -9 -11 -60 -24 -113 -14 -53 -36 -153 -51 -222 -15 -69
-33 -146 -40 -171 -8 -26 -19 -75 -25 -110 -7 -35 -23 -92 -36 -126 -13 -34
-24 -76 -24 -94 0 -18 -12 -82 -26 -143 -14 -61 -36 -160 -50 -221 -14 -60
-36 -153 -50 -206 -13 -53 -24 -106 -24 -119 0 -13 -11 -62 -24 -109 -35 -127
-66 -251 -85 -346 -32 -160 -45 -219 -67 -295 -13 -47 -24 -95 -24 -108 0 -13
-11 -67 -24 -120 -14 -53 -37 -164 -52 -247 -24 -135 -47 -229 -89 -365 -7
-25 -21 -79 -29 -120 -9 -41 -25 -109 -35 -150 -11 -41 -31 -124 -45 -185 -72
-319 -89 -390 -118 -500 -17 -66 -44 -167 -60 -225 -17 -58 -36 -130 -44 -160
-8 -30 -25 -89 -38 -130 -13 -41 -34 -118 -46 -170 -12 -52 -34 -151 -50 -220
-36 -160 -58 -260 -121 -555 -28 -132 -58 -265 -66 -295 -9 -30 -26 -102 -38
-160 -12 -58 -38 -166 -57 -240 -20 -74 -47 -202 -62 -285 -15 -82 -36 -195
-46 -250 -11 -55 -24 -149 -29 -210 -6 -60 -19 -139 -30 -175 -12 -36 -21 -78
-21 -95 0 -16 -11 -82 -24 -145 -13 -63 -38 -182 -56 -264 -17 -82 -35 -156
-40 -166 -5 -9 -20 -72 -34 -141 -56 -270 -66 -316 -80 -359 -8 -25 -24 -92
-36 -150 -11 -58 -32 -143 -45 -190 -13 -47 -29 -115 -35 -151 -5 -37 -16 -82
-24 -100 -8 -19 -19 -72 -26 -119 -6 -47 -22 -116 -35 -155 -13 -38 -29 -108
-35 -155 -13 -98 -37 -192 -53 -202 -6 -4 -20 -2 -30 4 -28 15 -37 0 -48 -78
-5 -38 -23 -119 -39 -180 -18 -66 -34 -157 -40 -228 -7 -87 -15 -129 -31 -159
-21 -41 -32 -147 -17 -162 15 -16 26 10 38 87 6 45 18 95 26 110 8 15 25 82
39 149 26 129 35 149 69 149 11 0 26 4 33 8 13 8 58 146 68 207 3 22 14 67 24
100 24 76 68 266 76 325 4 25 18 80 31 123 13 43 24 91 24 108 0 16 20 91 45
167 24 75 51 166 59 202 8 36 28 119 46 185 18 66 40 154 49 195 10 41 25 100
33 130 9 30 28 109 43 175 15 66 38 151 51 188 13 38 24 79 24 93 0 14 11 59
24 102 35 114 71 244 99 357 53 214 77 321 77 335 0 8 11 51 24 95 13 44 36
134 51 200 14 66 37 156 49 200 24 83 33 117 90 345 50 199 66 269 78 325 5
28 19 86 30 130 11 44 22 91 25 105 3 14 15 61 28 105 14 44 36 125 50 180 14
55 35 134 46 176 11 41 24 105 29 141 4 37 17 99 28 140 11 40 28 107 36 148
9 41 21 95 27 120 30 119 62 240 76 290 8 30 20 78 25 105 6 28 21 86 34 130
12 44 25 104 29 133 3 29 15 81 25 115 11 34 20 73 20 87 0 14 11 70 25 125
14 55 25 111 25 125 0 14 11 61 24 105 27 91 63 228 75 295 5 25 19 70 30 100
12 30 21 65 21 78 0 22 22 125 70 327 12 50 25 118 30 151 5 34 18 88 29 120
12 32 21 72 21 89 0 16 11 72 25 123 14 51 25 107 25 123 0 16 11 64 24 107
30 97 66 242 76 308 4 28 17 85 29 127 11 43 21 94 21 115 0 21 9 69 21 107
11 39 25 97 30 130 5 33 16 87 25 120 9 33 19 88 24 123 5 35 17 94 28 130 43
143 72 259 72 290 0 18 12 76 26 130 23 81 27 119 28 237 1 158 -4 173 -68
224 -38 31 -60 38 -69 24z"/>
<path d="M15126 16067 c-45 -81 -53 -145 -33 -258 9 -46 28 -149 42 -229 37
-204 72 -378 101 -500 13 -58 29 -136 34 -175 6 -38 17 -95 25 -125 18 -72 62
-265 70 -310 3 -19 17 -69 30 -110 39 -121 64 -211 75 -270 6 -29 17 -77 25
-105 8 -27 26 -108 41 -180 14 -71 36 -173 49 -225 13 -52 26 -115 29 -140 4
-25 15 -76 26 -115 10 -38 31 -124 45 -190 26 -116 65 -284 105 -450 40 -169
69 -302 79 -358 6 -32 13 -62 15 -66 8 -12 74 -272 81 -320 4 -25 25 -97 47
-160 22 -64 46 -145 53 -181 34 -172 69 -329 104 -475 44 -181 86 -363 96
-415 4 -19 15 -64 25 -100 32 -113 50 -182 76 -300 73 -335 132 -572 179 -720
59 -188 59 -187 140 -540 57 -253 78 -340 101 -412 13 -43 24 -89 24 -103 0
-14 11 -60 24 -103 13 -42 31 -106 39 -142 9 -36 25 -96 36 -135 35 -127 92
-349 106 -415 29 -134 91 -371 137 -525 17 -55 41 -138 53 -185 13 -47 30
-105 39 -129 9 -24 16 -55 16 -69 0 -13 13 -70 29 -126 16 -55 34 -128 41
-161 7 -33 21 -91 32 -130 11 -38 30 -115 40 -170 11 -55 29 -124 40 -152 11
-29 24 -83 28 -120 5 -38 18 -99 30 -138 11 -38 27 -94 36 -123 8 -29 28 -81
44 -115 36 -79 37 -58 5 131 -25 144 -38 205 -89 429 -14 61 -26 122 -26 135
0 13 -11 64 -24 113 -13 50 -36 144 -50 210 -15 66 -32 140 -38 165 -27 112
-37 167 -38 193 0 15 -9 56 -21 90 -12 34 -25 82 -29 107 -5 25 -18 79 -29
120 -11 41 -21 89 -21 107 0 18 -11 74 -25 125 -14 51 -36 131 -49 178 -13 47
-29 105 -35 130 -7 25 -18 70 -26 100 -8 30 -14 68 -15 84 0 16 -11 68 -24
115 -54 189 -66 240 -81 335 -8 54 -17 102 -19 105 -5 7 -59 373 -76 506 -12
93 -47 261 -97 465 -19 80 -42 172 -50 205 -8 33 -23 94 -33 136 -11 41 -36
156 -55 255 -62 312 -145 651 -265 1089 -17 61 -48 182 -70 270 -22 88 -49
194 -59 235 -50 190 -105 413 -122 490 -22 105 -78 326 -144 575 -21 80 -106
449 -140 605 -15 69 -33 147 -41 174 -8 28 -21 88 -29 135 -8 47 -20 102 -25
121 -6 19 -31 130 -55 245 -76 354 -92 425 -128 570 -19 77 -38 160 -42 185
-7 46 -72 311 -105 430 -30 106 -46 170 -69 270 -12 52 -33 129 -45 170 -13
41 -38 138 -55 215 -46 200 -50 215 -66 215 -8 0 -30 -28 -49 -63z"/>
<path d="M8777 15720 c-8 -12 -23 -65 -32 -118 -9 -54 -25 -128 -36 -167 -10
-38 -23 -104 -29 -145 -5 -41 -19 -104 -30 -140 -11 -36 -20 -73 -20 -82 0 -9
-11 -57 -24 -105 -38 -139 -76 -317 -76 -354 0 -38 -41 -216 -76 -331 -13 -43
-24 -88 -24 -101 0 -13 -9 -59 -20 -103 -12 -43 -25 -104 -30 -134 -10 -66
-45 -209 -72 -303 -11 -37 -23 -93 -28 -125 -5 -31 -16 -82 -25 -112 -10 -30
-21 -77 -25 -105 -4 -27 -16 -88 -28 -135 -12 -47 -33 -139 -47 -205 -47 -212
-72 -315 -92 -375 -18 -55 -24 -79 -58 -245 -14 -71 -37 -166 -51 -211 -13
-44 -24 -89 -24 -100 0 -11 -11 -54 -25 -94 -14 -40 -25 -87 -25 -104 0 -17
-11 -74 -25 -126 -14 -52 -25 -109 -25 -126 0 -17 -7 -51 -16 -75 -22 -65 -63
-214 -79 -294 -7 -39 -19 -84 -25 -100 -7 -17 -20 -68 -30 -115 -9 -47 -25
-114 -33 -150 -9 -36 -28 -119 -42 -185 -14 -66 -37 -165 -51 -220 -14 -55
-36 -143 -49 -195 -13 -52 -31 -122 -40 -155 -78 -293 -98 -374 -165 -665 -17
-74 -38 -157 -47 -185 -9 -27 -22 -77 -28 -110 -13 -63 -79 -326 -121 -481
-13 -49 -24 -101 -24 -115 0 -13 -11 -62 -25 -109 -37 -128 -64 -233 -90 -355
-29 -138 -92 -359 -115 -405 -10 -19 -21 -60 -25 -90 -4 -30 -32 -152 -62
-270 -30 -118 -64 -251 -74 -295 -10 -44 -24 -100 -30 -125 -6 -25 -19 -79
-29 -120 -10 -41 -27 -102 -38 -135 -11 -33 -30 -98 -42 -145 -12 -47 -33
-121 -45 -165 -53 -184 -69 -244 -81 -326 -7 -48 -18 -99 -24 -115 -15 -39
-52 -235 -46 -241 15 -16 34 13 50 74 9 37 26 87 37 111 10 24 24 73 29 111 5
37 17 85 26 107 9 21 23 59 30 84 15 55 53 167 119 355 10 28 23 70 31 95 7
25 21 72 32 105 11 33 32 98 46 145 14 47 46 148 71 225 25 77 51 160 59 185
7 25 21 68 31 95 52 147 64 186 79 245 9 36 25 94 35 130 18 64 27 92 71 220
12 36 26 85 31 110 5 25 18 72 29 105 61 188 85 268 110 365 6 25 22 81 35
125 33 109 54 189 70 259 13 57 29 111 81 281 13 44 35 116 48 160 37 121 57
195 68 250 6 28 21 84 34 126 13 42 24 82 24 90 0 8 11 55 26 104 14 50 36
131 50 180 14 50 36 124 50 165 13 42 24 85 24 95 0 11 11 54 24 95 23 71 56
197 76 286 5 23 18 68 29 100 12 32 21 68 21 81 0 12 11 53 25 91 14 38 25 78
25 89 0 11 11 55 25 97 14 42 25 87 25 99 0 12 12 49 25 82 14 33 25 69 25 80
0 11 11 56 25 100 14 44 25 90 25 103 0 13 11 57 25 98 14 41 25 85 25 99 0
13 11 55 25 93 14 38 25 80 25 93 0 13 11 65 24 114 13 50 26 110 30 135 4 24
16 64 26 88 11 25 20 54 20 66 0 11 11 53 25 91 13 39 25 79 25 90 0 11 9 49
21 85 11 36 24 91 29 122 4 32 17 88 28 125 34 120 64 246 73 310 4 34 17 84
27 110 17 43 39 117 62 213 44 179 53 222 60 266 4 28 17 82 28 120 33 111 63
235 72 294 10 60 38 183 75 325 13 50 26 111 29 137 3 26 15 74 26 107 11 33
20 71 20 83 0 13 10 59 21 103 55 208 55 304 3 409 -13 28 -24 58 -24 68 0 10
-11 39 -24 65 -14 27 -37 73 -52 103 -14 30 -34 63 -44 73 -17 18 -18 18 -33
-3z"/>
<path d="M14919 15638 c-24 -46 -50 -98 -57 -117 -7 -19 -18 -42 -26 -50 -8
-9 -17 -31 -21 -50 -4 -18 -18 -58 -32 -88 -21 -46 -25 -66 -21 -118 3 -34 13
-73 22 -87 9 -13 21 -51 27 -84 6 -32 14 -63 18 -69 4 -5 13 -28 19 -50 6 -22
23 -79 37 -126 14 -47 25 -92 25 -100 0 -15 40 -189 71 -304 10 -38 25 -104
33 -145 7 -41 30 -145 51 -230 20 -85 43 -184 50 -220 26 -131 65 -306 79
-355 39 -132 65 -235 71 -280 3 -27 15 -79 25 -115 10 -36 23 -85 29 -110 18
-82 58 -223 98 -350 51 -161 82 -270 98 -345 20 -94 60 -257 100 -410 21 -77
41 -160 46 -185 5 -25 18 -79 30 -120 11 -41 31 -113 44 -160 13 -47 26 -101
30 -120 4 -19 15 -64 25 -100 10 -36 30 -117 45 -180 14 -63 37 -153 51 -200
13 -47 40 -139 59 -205 19 -66 52 -172 73 -235 21 -63 42 -133 46 -155 4 -22
16 -69 26 -105 10 -36 31 -112 45 -170 15 -58 37 -141 50 -185 14 -44 36 -127
50 -185 15 -58 35 -134 45 -170 27 -94 110 -415 126 -484 7 -32 21 -86 32
-120 11 -33 43 -135 72 -226 28 -91 60 -185 70 -210 28 -69 80 -235 80 -256 0
-10 11 -50 24 -89 13 -38 36 -110 50 -160 15 -49 32 -103 38 -120 6 -16 17
-57 26 -90 8 -33 25 -89 37 -125 23 -67 52 -158 100 -315 15 -49 34 -106 41
-125 8 -19 20 -60 28 -90 8 -30 23 -77 35 -103 12 -27 21 -56 21 -66 0 -10 21
-76 46 -147 43 -120 71 -204 123 -364 12 -36 28 -90 36 -120 7 -30 21 -73 31
-95 9 -22 24 -71 34 -110 26 -101 103 -317 115 -319 6 0 12 17 13 39 4 39 -11
100 -85 365 -20 69 -40 145 -45 170 -11 53 -52 212 -85 329 -12 46 -23 94 -23
107 0 13 -4 33 -9 46 -5 13 -28 84 -51 158 -23 74 -50 162 -61 195 -10 33 -22
83 -25 110 -3 28 -16 79 -29 115 -33 94 -52 161 -80 285 -14 61 -39 162 -56
225 -17 63 -39 149 -49 190 -48 205 -93 376 -121 465 -10 33 -21 80 -25 105
-3 25 -17 88 -30 140 -13 52 -37 149 -53 215 -32 132 -53 208 -117 425 -23 80
-56 206 -74 280 -17 74 -43 182 -56 240 -14 58 -36 146 -49 195 -14 50 -38
153 -55 230 -17 77 -39 173 -50 214 -11 41 -20 82 -20 92 0 9 -11 54 -24 100
-13 46 -35 138 -50 204 -56 252 -112 473 -151 590 -21 63 -83 318 -152 625
-14 63 -36 154 -49 202 -13 48 -24 97 -24 109 0 12 -11 65 -24 118 -13 53 -36
150 -50 216 -15 66 -36 152 -46 190 -11 39 -24 99 -30 135 -5 36 -17 92 -26
125 -9 33 -20 80 -24 105 -4 25 -17 86 -29 135 -12 50 -34 140 -48 200 -41
179 -84 338 -98 365 -7 14 -18 59 -24 100 -7 41 -20 111 -31 155 -10 44 -30
134 -45 200 -14 66 -35 154 -46 195 -11 41 -24 98 -28 125 -15 91 -52 279 -71
360 -11 44 -33 150 -50 235 -16 85 -41 191 -55 235 -13 44 -27 92 -30 108 -10
52 -39 34 -86 -55z"/>
<path d="M14681 14858 c-41 -130 -60 -206 -69 -293 -6 -49 -17 -110 -25 -135
-9 -25 -18 -65 -22 -90 -3 -25 -17 -97 -30 -160 -23 -111 -41 -215 -70 -405
-7 -49 -20 -124 -28 -165 -8 -41 -18 -120 -22 -175 -4 -60 -16 -128 -30 -170
-41 -125 -50 -177 -49 -310 0 -135 16 -239 53 -332 10 -26 22 -68 26 -92 4
-24 14 -60 22 -80 8 -19 28 -83 44 -141 16 -58 41 -143 55 -190 26 -86 57
-191 99 -335 31 -103 49 -158 147 -460 11 -33 24 -78 29 -100 6 -21 14 -44 18
-50 11 -13 46 -113 127 -360 37 -110 74 -222 84 -250 10 -27 33 -97 50 -155
18 -58 41 -127 51 -155 10 -27 23 -68 28 -90 12 -53 49 -159 72 -212 11 -24
19 -47 19 -53 0 -14 29 -102 40 -122 6 -10 10 -24 10 -33 0 -22 60 -174 130
-330 33 -74 62 -150 71 -189 6 -22 13 -44 17 -50 10 -16 32 -79 32 -94 0 -7 9
-34 21 -59 12 -25 27 -67 34 -92 7 -25 41 -125 74 -221 34 -96 79 -227 101
-290 35 -104 59 -167 122 -325 11 -27 28 -72 38 -100 10 -27 35 -86 55 -130
21 -44 48 -107 60 -140 50 -133 84 -223 105 -275 12 -30 30 -77 40 -105 20
-53 74 -187 90 -220 5 -11 23 -54 40 -95 17 -41 40 -95 50 -120 10 -25 33 -79
50 -120 17 -41 49 -109 70 -150 42 -81 174 -347 234 -470 20 -41 48 -95 62
-120 15 -25 59 -108 99 -185 39 -77 89 -169 110 -205 21 -36 44 -77 52 -91 7
-15 20 -32 28 -39 8 -7 15 -16 15 -20 0 -4 22 -40 48 -81 27 -41 64 -101 82
-134 35 -62 108 -176 179 -279 23 -32 41 -61 41 -66 0 -4 14 -26 30 -48 17
-23 30 -46 30 -50 0 -12 88 -102 100 -102 13 0 13 6 -4 38 -7 15 -23 59 -34
97 -11 39 -29 93 -41 120 -23 58 -64 198 -79 270 -12 61 -51 200 -117 420 -13
44 -36 121 -51 170 -15 50 -37 119 -50 155 -12 36 -37 115 -55 175 -18 61 -52
157 -76 215 -23 58 -43 112 -43 120 0 8 -9 40 -21 70 -11 30 -24 69 -29 85
-10 35 -54 171 -76 235 -9 25 -22 68 -30 95 -7 28 -33 109 -57 180 -24 72 -56
171 -71 220 -15 50 -34 105 -42 124 -8 18 -21 59 -29 90 -7 31 -23 83 -34 116
-11 33 -34 103 -50 155 -17 52 -48 147 -69 210 -39 114 -79 238 -127 400 -14
47 -30 99 -35 115 -5 17 -23 80 -39 140 -60 225 -103 382 -121 445 -26 85 -48
166 -108 390 -27 102 -54 201 -60 220 -7 19 -27 85 -46 145 -19 61 -42 130
-50 155 -17 51 -64 223 -96 350 -39 154 -72 274 -96 348 -13 40 -24 82 -24 95
0 12 -9 51 -20 87 -11 36 -27 97 -36 135 -16 70 -25 106 -63 245 -11 41 -29
109 -40 150 -11 41 -25 95 -31 120 -7 25 -23 90 -37 145 -49 199 -113 421
-145 503 -11 29 -29 94 -39 145 -10 51 -27 121 -37 157 -11 36 -27 94 -37 130
-9 36 -25 94 -36 130 -10 36 -25 97 -34 135 -8 39 -24 110 -35 159 -10 49 -26
112 -34 140 -27 94 -108 420 -121 491 -7 39 -22 104 -34 145 -11 41 -31 121
-45 178 -60 239 -79 309 -96 352 -10 25 -23 70 -29 102 -5 31 -17 74 -26 95
-25 56 -43 121 -50 178 -14 106 -25 111 -54 23z"/>
<path d="M6256 5577 c-13 -10 -19 -32 -23 -80 -5 -58 -3 -68 12 -73 36 -14 69
17 84 79 7 31 11 64 7 72 -7 19 -56 20 -80 2z"/>
<path d="M17619 5516 c-3 -3 -3 -21 -1 -41 5 -38 22 -49 21 -12 -1 27 -13 60
-20 53z"/>
</g>
</svg>
