<?xml version="1.0" standalone="no"?>
<!DOCTYPE svg PUBLIC "-//W3C//DTD SVG 20010904//EN"
 "http://www.w3.org/TR/2001/REC-SVG-20010904/DTD/svg10.dtd">
<svg version="1.0" xmlns="http://www.w3.org/2000/svg"
 width="348.000000pt" height="800.000000pt" viewBox="0 0 348.000000 800.000000"
 preserveAspectRatio="xMidYMid meet">

<g transform="translate(0.000000,800.000000) scale(0.100000,-0.100000)"
fill="#fff" stroke="none">
<path d="M1631 7981 c-13 -13 -21 -34 -21 -56 0 -27 -4 -35 -18 -35 -26 0 -52
-31 -52 -62 0 -22 -6 -26 -39 -32 -48 -7 -71 -36 -71 -87 0 -49 32 -89 71 -89
28 0 29 -2 29 -43 0 -30 6 -49 19 -61 16 -14 18 -28 14 -84 -8 -124 5 -114
-136 -108 -67 2 -129 7 -138 10 -8 4 -33 -1 -54 -10 -27 -11 -60 -15 -109 -12
l-71 3 -3 -34 c-2 -18 1 -38 7 -44 5 -5 43 -11 84 -12 44 -2 86 -9 105 -19 25
-13 33 -13 39 -3 6 10 39 12 137 9 l128 -4 -4 -94 c-2 -51 -7 -96 -11 -100 -4
-4 -53 -3 -110 3 -58 5 -107 6 -114 1 -8 -6 -20 7 -39 41 -15 28 -36 53 -46
57 -36 11 -89 -7 -128 -43 -51 -45 -65 -91 -43 -144 18 -46 83 -105 123 -114
40 -9 84 17 104 60 18 38 25 42 44 23 7 -7 15 -8 24 -1 7 5 52 7 101 5 l87 -4
0 -37 c0 -61 -40 -1584 -43 -1621 -2 -31 -5 -35 -28 -32 -82 10 -267 -43 -434
-123 -134 -64 -236 -153 -319 -279 -91 -137 -129 -250 -142 -421 -7 -102 -2
-147 58 -454 47 -243 46 -281 -11 -372 l-29 -46 29 -50 29 -50 46 15 c58 19
109 5 165 -45 62 -56 74 -110 74 -328 -1 -162 -4 -191 -28 -289 -55 -221 -167
-372 -301 -408 -40 -11 -56 -10 -109 5 -90 25 -89 26 -114 -20 l-24 -41 25
-37 c47 -69 46 -122 -3 -310 -93 -353 -111 -430 -125 -525 -46 -323 -23 -525
84 -745 83 -171 194 -280 413 -409 120 -71 299 -159 362 -180 155 -50 356 -70
459 -46 34 7 43 5 70 -15 48 -36 93 -40 162 -14 44 16 78 21 131 20 103 -3
231 22 384 75 140 48 335 136 404 181 22 15 58 38 79 52 58 38 178 154 234
224 146 185 211 389 214 669 0 81 -5 151 -16 205 -20 94 -107 385 -157 518
-28 76 -33 104 -33 180 -1 65 4 103 17 136 17 43 17 49 3 75 -32 59 -33 60
-56 39 -33 -30 -144 -33 -197 -6 -54 27 -134 118 -173 197 -38 77 -82 246
-104 401 -20 136 -20 169 -1 258 11 54 21 76 45 97 32 30 103 53 190 63 53 6
56 8 82 55 l27 49 -24 43 c-66 118 -71 201 -25 394 69 287 67 548 -5 727 -37
93 -85 165 -165 246 -155 159 -330 242 -599 285 -52 9 -96 17 -98 19 -2 3 -19
377 -38 833 -18 456 -36 866 -39 912 l-5 82 116 -4 c76 -2 118 -7 123 -16 6
-9 18 -8 53 4 31 10 62 14 91 10 25 -4 56 -4 71 0 23 6 26 11 23 44 l-3 37
-67 2 c-43 1 -81 9 -109 22 -23 11 -46 18 -52 14 -9 -5 -249 -5 -253 0 -1 1
-4 33 -8 70 l-7 69 78 -8 c43 -4 96 -8 117 -8 36 -1 41 -4 48 -33 23 -90 137
-79 216 22 43 54 15 161 -50 196 -71 38 -111 30 -147 -29 l-24 -40 -115 4
c-80 2 -118 7 -124 16 -13 22 -9 65 8 79 13 11 15 25 11 70 l-6 56 30 0 c42 0
61 23 67 81 4 41 1 53 -17 71 -11 11 -29 21 -39 21 -13 0 -21 13 -30 45 -9 34
-18 46 -36 51 -19 4 -26 14 -28 37 -4 39 -34 56 -112 64 -46 5 -57 2 -75 -16z
m-11 -1039 c0 -37 -7 -306 -15 -597 -27 -938 -75 -2945 -73 -3024 l2 -76 3 62
c4 70 0 66 96 78 l47 6 0 1806 c0 994 2 1804 4 1802 4 -5 16 -2693 16 -3744
l0 -780 72 -2 c81 -3 88 2 88 62 l0 40 -75 -1 -75 -1 0 408 0 409 60 0 60 0 2
-122 c2 -113 2 -115 5 -28 1 52 -17 916 -40 1920 -24 1004 -42 1827 -40 1829
2 2 5 2 8 0 3 -4 26 -937 77 -3179 7 -305 14 -525 16 -488 3 67 3 67 30 63 15
-2 44 -7 65 -10 l37 -6 2 -77 c0 -42 3 -63 5 -47 4 30 -105 2392 -152 3290
-14 281 -20 464 -14 470 5 5 9 0 9 -15 0 -26 140 -2992 164 -3460 7 -151 14
-251 15 -221 l1 54 30 -6 c24 -5 30 -3 30 11 0 9 -23 397 -50 861 -28 464 -50
864 -50 888 l0 43 63 0 c88 0 193 -32 320 -97 251 -128 362 -251 443 -490 38
-110 38 -268 0 -478 -47 -259 -56 -318 -56 -395 0 -78 21 -144 60 -185 30 -33
5 -55 -73 -65 -146 -18 -233 -72 -257 -160 -14 -53 -1 -242 31 -430 39 -234
81 -338 178 -443 68 -73 121 -105 193 -113 48 -6 63 -3 93 15 43 25 41 25 49
5 3 -8 -2 -30 -11 -47 -14 -25 -17 -57 -17 -142 0 -99 3 -116 28 -170 71 -152
149 -420 171 -585 33 -250 10 -391 -100 -610 -115 -230 -269 -372 -560 -515
-127 -63 -377 -149 -482 -166 -87 -14 -148 -6 -138 19 19 47 17 160 -4 262
-32 151 -36 252 -17 420 21 191 48 329 97 502 51 180 89 336 89 366 0 25 -33
62 -55 62 -12 0 -15 -16 -17 -77 l-2 -78 -3 77 -4 77 -84 3 -85 3 -2 -70 -2
-70 -3 68 -4 67 -63 0 -63 0 -10 -62 -10 -63 -2 63 -1 62 -60 0 -59 0 -4 63
c-2 34 -2 4 0 -68 2 -90 0 -125 -7 -115 -5 8 -10 43 -10 78 0 58 -1 62 -16 48
-8 -9 -21 -16 -28 -16 -7 0 -23 -12 -37 -26 -21 -22 -24 -35 -23 -92 2 -133
132 -558 229 -753 l37 -72 -74 40 c-99 55 -237 108 -332 128 -109 24 -254 16
-354 -18 -179 -63 -340 -156 -441 -254 -30 -29 -56 -53 -57 -53 0 0 -22 50
-48 110 -93 217 -121 404 -96 630 11 100 22 152 90 399 40 150 80 368 80 443
0 59 -4 81 -19 100 -30 38 -12 55 30 29 45 -27 112 -27 186 1 43 16 75 38 124
87 56 56 71 79 101 156 75 190 110 425 90 613 -15 141 -67 253 -133 288 -32
16 -107 20 -157 9 -38 -8 -46 16 -20 61 24 40 48 153 48 223 0 31 -15 112 -34
185 -38 144 -66 307 -66 382 0 97 46 285 93 379 62 127 283 322 419 371 112
40 361 85 370 67 3 -4 1 -111 -3 -238 -36 -1060 -51 -1547 -47 -1550 2 -3 20
-2 39 1 l36 6 6 327 c10 463 65 2810 73 3089 4 127 11 232 15 232 5 0 9 -30 9
-68z m28 -5375 c-2 -43 8 -59 34 -51 14 4 18 2 14 -5 -10 -16 -41 -14 -55 3
-8 9 -10 28 -5 50 8 45 15 47 12 3z m-133 -5 c-8 -38 16 -61 43 -41 15 13 16
12 3 -3 -29 -37 -67 -9 -56 42 4 16 9 30 12 30 2 0 2 -13 -2 -28z m287 -59 c6
-7 15 -10 21 -6 6 3 7 1 3 -5 -21 -34 -63 11 -49 51 7 22 7 22 11 -3 2 -14 8
-31 14 -37z m163 17 c-6 -25 -3 -31 16 -38 13 -5 18 -11 12 -15 -15 -9 -40 1
-47 19 -5 13 12 64 21 64 3 0 2 -14 -2 -30z"/>
<path d="M1504 3130 c0 -113 2 -159 3 -102 2 56 2 148 0 205 -1 56 -3 10 -3
-103z"/>
<path d="M2023 3130 c0 -47 2 -66 4 -42 2 23 2 61 0 85 -2 23 -4 4 -4 -43z"/>
<path d="M1524 3045 c0 -82 2 -115 3 -72 2 43 2 110 0 150 -1 40 -3 5 -3 -78z"/>
<path d="M2004 3100 c0 -52 1 -74 3 -47 2 26 2 68 0 95 -2 26 -3 4 -3 -48z"/>
<path d="M1864 2985 c0 -93 2 -133 3 -88 2 45 2 122 0 170 -1 48 -3 12 -3 -82z"/>
<path d="M1844 2900 c0 -80 2 -112 3 -72 2 39 2 105 0 145 -1 39 -3 7 -3 -73z"/>
<path d="M2032 2954 c-1 -39 1 -92 4 -118 6 -42 9 -46 35 -46 35 0 59 24 59
59 0 72 62 82 95 16 18 -36 20 -68 26 -320 9 -372 25 -442 129 -546 64 -64
101 -71 176 -34 59 29 99 77 110 131 4 24 0 37 -21 62 -33 39 -63 41 -105 5
-31 -25 -32 -29 -26 -78 5 -44 3 -55 -14 -70 -19 -17 -21 -17 -54 18 -66 71
-88 198 -85 512 2 202 -5 252 -48 337 -29 59 -80 88 -152 88 -42 0 -56 -5 -85
-31 l-35 -30 -4 58 c-3 58 -3 58 -5 -13z"/>
<path d="M2014 2890 c0 -52 1 -74 3 -47 2 26 2 68 0 95 -2 26 -3 4 -3 -48z"/>
<path d="M1264 2956 c-89 -39 -144 -189 -144 -396 0 -111 -27 -340 -47 -399
-18 -54 -52 -107 -84 -129 -21 -14 -23 -14 -41 8 -11 14 -16 30 -12 39 4 9 9
30 11 47 4 25 -1 36 -31 62 -45 39 -56 39 -96 5 -29 -24 -32 -31 -27 -70 8
-74 82 -147 161 -160 78 -12 196 103 229 223 25 91 47 263 57 439 9 171 18
218 51 259 37 47 79 25 79 -43 0 -20 8 -35 22 -45 36 -26 57 -20 74 20 19 46
7 80 -43 124 -27 24 -42 30 -81 30 -26 -1 -61 -7 -78 -14z"/>
<path d="M1494 2735 c0 -93 2 -133 3 -88 2 45 2 122 0 170 -1 48 -3 12 -3 -82z"/>
<path d="M2043 2705 c0 -44 2 -61 4 -37 2 23 2 59 0 80 -2 20 -4 1 -4 -43z"/>
<path d="M1513 2570 c0 -113 2 -191 6 -175 5 27 10 30 49 33 33 2 42 7 38 17
-7 18 29 39 55 32 17 -5 19 1 19 45 l0 51 -80 -6 -79 -5 -4 106 c-1 59 -3 15
-4 -98z"/>
<path d="M1841 2734 c0 -11 3 -14 6 -6 3 7 2 16 -1 19 -3 4 -6 -2 -5 -13z"/>
<path d="M2023 2675 c0 -44 2 -61 4 -37 2 23 2 59 0 80 -2 20 -4 1 -4 -43z"/>
<path d="M1872 2603 c-2 -131 -1 -141 16 -136 25 6 72 -14 72 -31 0 -8 13 -15
34 -18 l34 -4 7 53 c9 71 1 93 -34 93 -16 0 -49 3 -74 6 l-46 7 -4 86 c-2 61
-3 44 -5 -56z"/>
<path d="M1681 2634 c0 -11 3 -14 6 -6 3 7 2 16 -1 19 -3 4 -6 -2 -5 -13z"/>
<path d="M2052 2520 l-2 -85 20 25 c23 29 26 66 6 77 -8 4 -16 22 -19 38 -2
17 -5 -8 -5 -55z"/>
<path d="M1473 2549 c-18 -18 -17 -126 1 -136 8 -4 16 -17 19 -28 7 -31 7 95
-1 138 -6 31 -9 36 -19 26z"/>
<path d="M1844 2345 c0 -55 1 -76 3 -47 2 29 2 74 0 100 -2 26 -3 2 -3 -53z"/>
<path d="M2024 2315 c0 -49 1 -71 3 -48 2 23 2 64 0 90 -2 26 -3 8 -3 -42z"/>
<path d="M1863 2310 c0 -36 2 -50 4 -32 2 17 2 47 0 65 -2 17 -4 3 -4 -33z"/>
<path d="M2043 2310 c0 -30 2 -43 4 -27 2 15 2 39 0 55 -2 15 -4 2 -4 -28z"/>
<path d="M1524 2245 c0 -55 1 -76 3 -47 2 29 2 74 0 100 -2 26 -3 2 -3 -53z"/>
<path d="M1671 2264 c0 -11 3 -14 6 -6 3 7 2 16 -1 19 -3 4 -6 -2 -5 -13z"/>
<path d="M1503 2215 c0 -27 2 -38 4 -22 2 15 2 37 0 50 -2 12 -4 0 -4 -28z"/>
<path d="M1692 2240 c0 -14 2 -19 5 -12 2 6 2 18 0 25 -3 6 -5 1 -5 -13z"/>
<path d="M2014 2070 c0 -58 1 -81 3 -52 2 28 2 76 0 105 -2 28 -3 5 -3 -53z"/>
<path d="M1501 2144 c0 -11 3 -14 6 -6 3 7 2 16 -1 19 -3 4 -6 -2 -5 -13z"/>
<path d="M1673 2120 c0 -25 2 -35 4 -22 2 12 2 32 0 45 -2 12 -4 2 -4 -23z"/>
<path d="M1833 2095 c0 -38 2 -53 4 -32 2 20 2 52 0 70 -2 17 -4 1 -4 -38z"/>
<path d="M1853 2100 c0 -30 2 -43 4 -27 2 15 2 39 0 55 -2 15 -4 2 -4 -28z"/>
<path d="M2033 2100 c0 -25 2 -35 4 -22 2 12 2 32 0 45 -2 12 -4 2 -4 -23z"/>
<path d="M1534 2025 c0 -49 1 -71 3 -48 2 23 2 64 0 90 -2 26 -3 8 -3 -42z"/>
<path d="M1511 1994 c0 -11 3 -14 6 -6 3 7 2 16 -1 19 -3 4 -6 -2 -5 -13z"/>
<path d="M1691 1984 c0 -11 3 -14 6 -6 3 7 2 16 -1 19 -3 4 -6 -2 -5 -13z"/>
<path d="M1842 1910 c0 -14 2 -19 5 -12 2 6 2 18 0 25 -3 6 -5 1 -5 -13z"/>
<path d="M2003 1830 c0 -41 2 -58 4 -37 2 20 2 54 0 75 -2 20 -4 3 -4 -38z"/>
<path d="M2021 1874 c0 -11 3 -14 6 -6 3 7 2 16 -1 19 -3 4 -6 -2 -5 -13z"/>
<path d="M1823 1835 c0 -22 2 -30 4 -17 2 12 2 30 0 40 -3 9 -5 -1 -4 -23z"/>
</g>
</svg>
