<?xml version="1.0" standalone="no"?>
<!DOCTYPE svg PUBLIC "-//W3C//DTD SVG 20010904//EN"
 "http://www.w3.org/TR/2001/REC-SVG-20010904/DTD/svg10.dtd">
<svg version="1.0" xmlns="http://www.w3.org/2000/svg"
 width="1920.000000pt" height="960.000000pt" viewBox="0 0 1920.000000 960.000000"
 preserveAspectRatio="xMidYMid meet">

<g transform="translate(0.000000,960.000000) scale(0.100000,-0.100000)"
fill="#FFF" stroke="none">
<path d="M19039 5214 c-28 -30 -66 -41 -199 -55 -132 -15 -151 -15 -227 0 -53
10 -89 8 -220 -8 -181 -23 -404 -35 -1003 -56 -234 -8 -510 -20 -615 -25 -104
-5 -293 -14 -420 -20 -126 -5 -250 -12 -275 -15 -182 -21 -357 -24 -546 -10
-228 17 -383 19 -434 5 -19 -5 -53 -14 -75 -19 -68 -17 -483 -43 -840 -51
-187 -5 -387 -14 -445 -21 -62 -7 -290 -13 -560 -15 -250 -1 -518 -7 -595 -13
-77 -6 -545 -15 -1040 -21 -495 -5 -1116 -14 -1380 -20 -264 -5 -1055 -15
-1758 -21 -996 -8 -1290 -8 -1330 2 -33 7 -157 13 -332 14 -154 2 -435 12
-625 24 -241 15 -546 24 -1015 31 -937 13 -1581 36 -1995 70 -69 6 -213 17
-320 26 -197 15 -490 47 -765 83 -82 11 -233 27 -335 36 -102 9 -279 29 -395
45 -298 41 -447 53 -593 48 -239 -10 -355 -77 -453 -261 -32 -60 -66 -104
-125 -163 -77 -76 -103 -111 -118 -160 -6 -18 0 -24 35 -38 23 -9 78 -26 123
-37 110 -27 424 -38 1150 -39 710 0 1538 -12 3506 -50 2544 -50 3389 -60 5970
-70 1356 -5 3046 -15 3755 -22 1344 -14 1746 -15 2982 -9 l742 3 11 31 c6 18
15 104 20 192 9 157 16 199 40 245 11 21 17 22 72 16 33 -3 146 1 252 9 136
11 213 12 266 6 41 -5 78 -7 82 -5 5 3 16 -8 26 -25 9 -17 22 -31 27 -31 13 0
110 119 126 153 12 26 13 23 -38 120 -11 21 -12 32 -4 40 26 26 12 56 -38 81
l-50 24 -22 -24z m-64 -102 c6 -4 11 -18 11 -32 0 -14 3 -39 7 -55 8 -31 8
-31 -52 -44 -33 -7 -64 -10 -70 -6 -26 15 0 113 36 134 21 12 54 14 68 3z
m-410 -32 c4 -12 4 -38 0 -58 -5 -35 -10 -39 -48 -49 -23 -7 -50 -15 -59 -18
-27 -11 -38 23 -26 82 l10 52 47 4 c25 2 51 4 58 5 6 1 15 -7 18 -18z m-17485
-80 c75 -5 289 -26 475 -45 719 -76 1179 -115 1970 -170 1025 -70 1000 -69
2450 -86 479 -5 1091 -16 1360 -25 477 -15 1692 -21 1940 -9 150 7 1258 21
3095 40 778 8 1474 17 1545 20 72 3 407 10 745 15 338 6 732 16 875 25 464 26
1320 63 1600 68 119 2 147 -10 166 -72 15 -51 -1 -96 -44 -117 -16 -9 -73 -22
-126 -30 -53 -8 -116 -22 -141 -32 -37 -14 -75 -17 -205 -16 -88 0 -1580 4
-3315 7 -1735 4 -3402 11 -3705 17 -302 6 -779 15 -1060 20 -280 5 -836 10
-1235 10 -399 0 -939 5 -1200 10 -261 5 -864 14 -1340 20 -476 6 -1088 17
-1360 25 -272 8 -826 19 -1230 25 -769 10 -1509 27 -1596 35 -62 6 -113 26
-138 54 -27 29 -34 122 -13 155 37 56 209 76 487 56z m17050 -23 c0 -8 -8 -21
-17 -30 -15 -13 -63 -16 -298 -19 -154 -3 -288 -8 -297 -12 -10 -5 -18 -19
-18 -32 0 -29 -20 -32 -27 -4 -7 27 -19 25 -58 -9 l-33 -29 30 -6 c17 -3 67
-3 113 0 45 4 96 3 111 -1 l29 -8 -30 -13 c-19 -8 -71 -13 -136 -14 l-107 0
13 -37 c15 -43 12 -53 -14 -53 -37 0 -81 78 -81 144 0 40 -3 46 -25 52 -16 4
-25 13 -25 25 0 17 9 19 103 20 56 0 233 9 392 18 381 24 375 24 375 8z m-346
-187 c14 -5 26 -14 26 -19 0 -20 -33 -41 -65 -41 -41 0 -59 35 -29 57 21 16
34 16 68 3z m-186 -72 c-5 -15 -69 -22 -105 -13 -42 10 -14 25 48 25 44 0 60
-3 57 -12z m-95 -48 c63 0 96 -4 92 -10 -4 -6 -55 -10 -121 -10 -63 0 -114 -4
-114 -9 0 -14 95 -22 258 -19 117 2 152 5 152 15 0 8 -13 13 -35 13 -19 0 -35
5 -35 10 0 6 15 10 34 10 18 0 48 3 66 6 24 5 31 3 30 -7 -5 -32 1 -39 35 -39
32 0 35 -2 25 -19 -5 -11 -7 -26 -4 -34 4 -12 -19 -16 -143 -22 -133 -7 -492
1 -502 11 -15 15 117 115 144 109 11 -3 64 -5 118 -5z m-15793 -15 c217 -4
663 -13 990 -21 327 -9 1007 -19 1510 -24 503 -6 1014 -14 1135 -19 121 -6
688 -10 1260 -11 692 0 1246 -5 1655 -16 475 -13 820 -15 1515 -10 710 4 1005
2 1400 -11 405 -13 998 -16 3133 -19 l2633 -4 57 -23 c61 -24 68 -36 31 -54
-18 -8 -730 -9 -2944 -3 -3815 12 -4299 15 -5440 39 -528 11 -1531 25 -2230
31 -1213 10 -1972 22 -3445 55 -366 8 -915 19 -1220 25 -1049 19 -1030 17
-1030 67 0 13 35 14 298 9 163 -3 475 -8 692 -11z m16440 -29 c0 -49 4 -47
-122 -62 -50 -5 -59 -4 -65 11 -9 26 22 45 73 45 55 0 74 8 74 31 0 12 7 19
20 19 17 0 20 -7 20 -44z"/>
</g>
</svg>
